G04 ================== begin FILE IDENTIFICATION RECORD ==================*
G04 Layout Name:  F:/WorkSpace/Annecy/Libra/Libra.brd*
G04 Film Name:    DRILL*
G04 File Format:  Gerber RS274X*
G04 File Origin:  Cadence Allegro 16.6-2015-S066*
G04 Origin Date:  Thu Nov 09 18:13:41 2017*
G04 *
G04 Layer:  MANUFACTURING/NCLEGEND-1-2*
G04 Layer:  BOARD GEOMETRY/OUTLINE*
G04 Layer:  BOARD GEOMETRY/DIMENSION*
G04 *
G04 Offset:    (0.0 0.0)*
G04 Mirror:    No*
G04 Mode:      Positive*
G04 Rotation:  0*
G04 FullContactRelief:  No*
G04 UndefLineWidth:     6.0*
G04 ================== end FILE IDENTIFICATION RECORD ====================*
%FSLAX55Y55*MOIN*%
%IR0*IPPOS*OFA0.00000B0.00000*MIA0B0*SFA1.00000B1.00000*%
%AMMACRO10*
1,1,.006,.0197,0.0*
20,1,.006,.0197,0.0,.019401,-.003421,0.0*
1,1,.006,.019401,-.003421*
20,1,.006,.019401,-.003421,.018512,-.006738,0.0*
1,1,.006,.018512,-.006738*
20,1,.006,.018512,-.006738,.017061,-.00985,0.0*
1,1,.006,.017061,-.00985*
20,1,.006,.017061,-.00985,.015091,-.012663,0.0*
1,1,.006,.015091,-.012663*
20,1,.006,.015091,-.012663,.012663,-.015091,0.0*
1,1,.006,.012663,-.015091*
20,1,.006,.012663,-.015091,.00985,-.017061,0.0*
1,1,.006,.00985,-.017061*
20,1,.006,.00985,-.017061,.006738,-.018512,0.0*
1,1,.006,.006738,-.018512*
20,1,.006,.006738,-.018512,.003421,-.019401,0.0*
1,1,.006,.003421,-.019401*
20,1,.006,.003421,-.019401,0.0,-.0197,0.0*
1,1,.006,0.0,-.0197*
20,1,.006,0.0,-.0197,-.003421,-.019401,0.0*
1,1,.006,-.003421,-.019401*
20,1,.006,-.003421,-.019401,-.006738,-.018512,0.0*
1,1,.006,-.006738,-.018512*
20,1,.006,-.006738,-.018512,-.00985,-.017061,0.0*
1,1,.006,-.00985,-.017061*
20,1,.006,-.00985,-.017061,-.012663,-.015091,0.0*
1,1,.006,-.012663,-.015091*
20,1,.006,-.012663,-.015091,-.015091,-.012663,0.0*
1,1,.006,-.015091,-.012663*
20,1,.006,-.015091,-.012663,-.017061,-.00985,0.0*
1,1,.006,-.017061,-.00985*
20,1,.006,-.017061,-.00985,-.018512,-.006738,0.0*
1,1,.006,-.018512,-.006738*
20,1,.006,-.018512,-.006738,-.019401,-.003421,0.0*
1,1,.006,-.019401,-.003421*
20,1,.006,-.019401,-.003421,-.0197,0.0,0.0*
1,1,.006,-.0197,0.0*
20,1,.006,-.0197,0.0,-.019401,.003421,0.0*
1,1,.006,-.019401,.003421*
20,1,.006,-.019401,.003421,-.018512,.006738,0.0*
1,1,.006,-.018512,.006738*
20,1,.006,-.018512,.006738,-.017061,.00985,0.0*
1,1,.006,-.017061,.00985*
20,1,.006,-.017061,.00985,-.015091,.012663,0.0*
1,1,.006,-.015091,.012663*
20,1,.006,-.015091,.012663,-.012663,.015091,0.0*
1,1,.006,-.012663,.015091*
20,1,.006,-.012663,.015091,-.00985,.017061,0.0*
1,1,.006,-.00985,.017061*
20,1,.006,-.00985,.017061,-.006738,.018512,0.0*
1,1,.006,-.006738,.018512*
20,1,.006,-.006738,.018512,-.003421,.019401,0.0*
1,1,.006,-.003421,.019401*
20,1,.006,-.003421,.019401,0.0,.0197,0.0*
1,1,.006,0.0,.0197*
20,1,.006,0.0,.0197,.003421,.019401,0.0*
1,1,.006,.003421,.019401*
20,1,.006,.003421,.019401,.006738,.018512,0.0*
1,1,.006,.006738,.018512*
20,1,.006,.006738,.018512,.00985,.017061,0.0*
1,1,.006,.00985,.017061*
20,1,.006,.00985,.017061,.012663,.015091,0.0*
1,1,.006,.012663,.015091*
20,1,.006,.012663,.015091,.015091,.012663,0.0*
1,1,.006,.015091,.012663*
20,1,.006,.015091,.012663,.017061,.00985,0.0*
1,1,.006,.017061,.00985*
20,1,.006,.017061,.00985,.018512,.006738,0.0*
1,1,.006,.018512,.006738*
20,1,.006,.018512,.006738,.019401,.003421,0.0*
1,1,.006,.019401,.003421*
20,1,.006,.019401,.003421,.0197,0.0,0.0*
1,1,.006,.0197,0.0*
%
%ADD10MACRO10*%
%AMMACRO11*
1,1,.006,.0201,0.0*
20,1,.006,.0201,0.0,.019795,-.00349,0.0*
1,1,.006,.019795,-.00349*
20,1,.006,.019795,-.00349,.018888,-.006875,0.0*
1,1,.006,.018888,-.006875*
20,1,.006,.018888,-.006875,.017407,-.01005,0.0*
1,1,.006,.017407,-.01005*
20,1,.006,.017407,-.01005,.015397,-.01292,0.0*
1,1,.006,.015397,-.01292*
20,1,.006,.015397,-.01292,.01292,-.015397,0.0*
1,1,.006,.01292,-.015397*
20,1,.006,.01292,-.015397,.01005,-.017407,0.0*
1,1,.006,.01005,-.017407*
20,1,.006,.01005,-.017407,.006875,-.018888,0.0*
1,1,.006,.006875,-.018888*
20,1,.006,.006875,-.018888,.00349,-.019795,0.0*
1,1,.006,.00349,-.019795*
20,1,.006,.00349,-.019795,0.0,-.0201,0.0*
1,1,.006,0.0,-.0201*
20,1,.006,0.0,-.0201,-.00349,-.019795,0.0*
1,1,.006,-.00349,-.019795*
20,1,.006,-.00349,-.019795,-.006875,-.018888,0.0*
1,1,.006,-.006875,-.018888*
20,1,.006,-.006875,-.018888,-.01005,-.017407,0.0*
1,1,.006,-.01005,-.017407*
20,1,.006,-.01005,-.017407,-.01292,-.015397,0.0*
1,1,.006,-.01292,-.015397*
20,1,.006,-.01292,-.015397,-.015397,-.01292,0.0*
1,1,.006,-.015397,-.01292*
20,1,.006,-.015397,-.01292,-.017407,-.01005,0.0*
1,1,.006,-.017407,-.01005*
20,1,.006,-.017407,-.01005,-.018888,-.006875,0.0*
1,1,.006,-.018888,-.006875*
20,1,.006,-.018888,-.006875,-.019795,-.00349,0.0*
1,1,.006,-.019795,-.00349*
20,1,.006,-.019795,-.00349,-.0201,0.0,0.0*
1,1,.006,-.0201,0.0*
20,1,.006,-.0201,0.0,-.019795,.00349,0.0*
1,1,.006,-.019795,.00349*
20,1,.006,-.019795,.00349,-.018888,.006875,0.0*
1,1,.006,-.018888,.006875*
20,1,.006,-.018888,.006875,-.017407,.01005,0.0*
1,1,.006,-.017407,.01005*
20,1,.006,-.017407,.01005,-.015397,.01292,0.0*
1,1,.006,-.015397,.01292*
20,1,.006,-.015397,.01292,-.01292,.015397,0.0*
1,1,.006,-.01292,.015397*
20,1,.006,-.01292,.015397,-.01005,.017407,0.0*
1,1,.006,-.01005,.017407*
20,1,.006,-.01005,.017407,-.006875,.018888,0.0*
1,1,.006,-.006875,.018888*
20,1,.006,-.006875,.018888,-.00349,.019795,0.0*
1,1,.006,-.00349,.019795*
20,1,.006,-.00349,.019795,0.0,.0201,0.0*
1,1,.006,0.0,.0201*
20,1,.006,0.0,.0201,.00349,.019795,0.0*
1,1,.006,.00349,.019795*
20,1,.006,.00349,.019795,.006875,.018888,0.0*
1,1,.006,.006875,.018888*
20,1,.006,.006875,.018888,.01005,.017407,0.0*
1,1,.006,.01005,.017407*
20,1,.006,.01005,.017407,.01292,.015397,0.0*
1,1,.006,.01292,.015397*
20,1,.006,.01292,.015397,.015397,.01292,0.0*
1,1,.006,.015397,.01292*
20,1,.006,.015397,.01292,.017407,.01005,0.0*
1,1,.006,.017407,.01005*
20,1,.006,.017407,.01005,.018888,.006875,0.0*
1,1,.006,.018888,.006875*
20,1,.006,.018888,.006875,.019795,.00349,0.0*
1,1,.006,.019795,.00349*
20,1,.006,.019795,.00349,.0201,0.0,0.0*
1,1,.006,.0201,0.0*
1,1,.006,-.0083,-.01*
20,1,.006,-.0083,-.01,0.0,.0101,0.0*
1,1,.006,0.0,.0101*
20,1,.006,0.0,.0101,.0084,-.01,0.0*
1,1,.006,.0084,-.01*
1,1,.006,.0054,-.003*
20,1,.006,.0054,-.003,-.0053,-.003,0.0*
1,1,.006,-.0053,-.003*
%
%ADD11MACRO11*%
%AMMACRO13*
1,1,.006,.015,0.0*
20,1,.006,.015,0.0,.014772,-.002605,0.0*
1,1,.006,.014772,-.002605*
20,1,.006,.014772,-.002605,.014095,-.00513,0.0*
1,1,.006,.014095,-.00513*
20,1,.006,.014095,-.00513,.01299,-.0075,0.0*
1,1,.006,.01299,-.0075*
20,1,.006,.01299,-.0075,.011491,-.009642,0.0*
1,1,.006,.011491,-.009642*
20,1,.006,.011491,-.009642,.009642,-.011491,0.0*
1,1,.006,.009642,-.011491*
20,1,.006,.009642,-.011491,.0075,-.01299,0.0*
1,1,.006,.0075,-.01299*
20,1,.006,.0075,-.01299,.00513,-.014095,0.0*
1,1,.006,.00513,-.014095*
20,1,.006,.00513,-.014095,.002605,-.014772,0.0*
1,1,.006,.002605,-.014772*
20,1,.006,.002605,-.014772,0.0,-.015,0.0*
1,1,.006,0.0,-.015*
20,1,.006,0.0,-.015,-.002605,-.014772,0.0*
1,1,.006,-.002605,-.014772*
20,1,.006,-.002605,-.014772,-.00513,-.014095,0.0*
1,1,.006,-.00513,-.014095*
20,1,.006,-.00513,-.014095,-.0075,-.01299,0.0*
1,1,.006,-.0075,-.01299*
20,1,.006,-.0075,-.01299,-.009642,-.011491,0.0*
1,1,.006,-.009642,-.011491*
20,1,.006,-.009642,-.011491,-.011491,-.009642,0.0*
1,1,.006,-.011491,-.009642*
20,1,.006,-.011491,-.009642,-.01299,-.0075,0.0*
1,1,.006,-.01299,-.0075*
20,1,.006,-.01299,-.0075,-.014095,-.00513,0.0*
1,1,.006,-.014095,-.00513*
20,1,.006,-.014095,-.00513,-.014772,-.002605,0.0*
1,1,.006,-.014772,-.002605*
20,1,.006,-.014772,-.002605,-.015,0.0,0.0*
1,1,.006,-.015,0.0*
20,1,.006,-.015,0.0,-.014772,.002605,0.0*
1,1,.006,-.014772,.002605*
20,1,.006,-.014772,.002605,-.014095,.00513,0.0*
1,1,.006,-.014095,.00513*
20,1,.006,-.014095,.00513,-.01299,.0075,0.0*
1,1,.006,-.01299,.0075*
20,1,.006,-.01299,.0075,-.011491,.009642,0.0*
1,1,.006,-.011491,.009642*
20,1,.006,-.011491,.009642,-.009642,.011491,0.0*
1,1,.006,-.009642,.011491*
20,1,.006,-.009642,.011491,-.0075,.01299,0.0*
1,1,.006,-.0075,.01299*
20,1,.006,-.0075,.01299,-.00513,.014095,0.0*
1,1,.006,-.00513,.014095*
20,1,.006,-.00513,.014095,-.002605,.014772,0.0*
1,1,.006,-.002605,.014772*
20,1,.006,-.002605,.014772,0.0,.015,0.0*
1,1,.006,0.0,.015*
20,1,.006,0.0,.015,.002605,.014772,0.0*
1,1,.006,.002605,.014772*
20,1,.006,.002605,.014772,.00513,.014095,0.0*
1,1,.006,.00513,.014095*
20,1,.006,.00513,.014095,.0075,.01299,0.0*
1,1,.006,.0075,.01299*
20,1,.006,.0075,.01299,.009642,.011491,0.0*
1,1,.006,.009642,.011491*
20,1,.006,.009642,.011491,.011491,.009642,0.0*
1,1,.006,.011491,.009642*
20,1,.006,.011491,.009642,.01299,.0075,0.0*
1,1,.006,.01299,.0075*
20,1,.006,.01299,.0075,.014095,.00513,0.0*
1,1,.006,.014095,.00513*
20,1,.006,.014095,.00513,.014772,.002605,0.0*
1,1,.006,.014772,.002605*
20,1,.006,.014772,.002605,.015,0.0,0.0*
1,1,.006,.015,0.0*
1,1,.006,-.0063,.0075*
20,1,.006,-.0063,.0075,0.0,-.0075,0.0*
1,1,.006,0.0,-.0075*
20,1,.006,0.0,-.0075,.0063,.0075,0.0*
1,1,.006,.0063,.0075*
%
%ADD13MACRO13*%
%AMMACRO12*
1,1,.006,.016,0.0*
20,1,.006,.016,0.0,.015757,-.002778,0.0*
1,1,.006,.015757,-.002778*
20,1,.006,.015757,-.002778,.015035,-.005472,0.0*
1,1,.006,.015035,-.005472*
20,1,.006,.015035,-.005472,.013856,-.008,0.0*
1,1,.006,.013856,-.008*
20,1,.006,.013856,-.008,.012257,-.010285,0.0*
1,1,.006,.012257,-.010285*
20,1,.006,.012257,-.010285,.010285,-.012257,0.0*
1,1,.006,.010285,-.012257*
20,1,.006,.010285,-.012257,.008,-.013856,0.0*
1,1,.006,.008,-.013856*
20,1,.006,.008,-.013856,.005472,-.015035,0.0*
1,1,.006,.005472,-.015035*
20,1,.006,.005472,-.015035,.002778,-.015757,0.0*
1,1,.006,.002778,-.015757*
20,1,.006,.002778,-.015757,0.0,-.016,0.0*
1,1,.006,0.0,-.016*
20,1,.006,0.0,-.016,-.002778,-.015757,0.0*
1,1,.006,-.002778,-.015757*
20,1,.006,-.002778,-.015757,-.005472,-.015035,0.0*
1,1,.006,-.005472,-.015035*
20,1,.006,-.005472,-.015035,-.008,-.013856,0.0*
1,1,.006,-.008,-.013856*
20,1,.006,-.008,-.013856,-.010285,-.012257,0.0*
1,1,.006,-.010285,-.012257*
20,1,.006,-.010285,-.012257,-.012257,-.010285,0.0*
1,1,.006,-.012257,-.010285*
20,1,.006,-.012257,-.010285,-.013856,-.008,0.0*
1,1,.006,-.013856,-.008*
20,1,.006,-.013856,-.008,-.015035,-.005472,0.0*
1,1,.006,-.015035,-.005472*
20,1,.006,-.015035,-.005472,-.015757,-.002778,0.0*
1,1,.006,-.015757,-.002778*
20,1,.006,-.015757,-.002778,-.016,0.0,0.0*
1,1,.006,-.016,0.0*
20,1,.006,-.016,0.0,-.015757,.002778,0.0*
1,1,.006,-.015757,.002778*
20,1,.006,-.015757,.002778,-.015035,.005472,0.0*
1,1,.006,-.015035,.005472*
20,1,.006,-.015035,.005472,-.013856,.008,0.0*
1,1,.006,-.013856,.008*
20,1,.006,-.013856,.008,-.012257,.010285,0.0*
1,1,.006,-.012257,.010285*
20,1,.006,-.012257,.010285,-.010285,.012257,0.0*
1,1,.006,-.010285,.012257*
20,1,.006,-.010285,.012257,-.008,.013856,0.0*
1,1,.006,-.008,.013856*
20,1,.006,-.008,.013856,-.005472,.015035,0.0*
1,1,.006,-.005472,.015035*
20,1,.006,-.005472,.015035,-.002778,.015757,0.0*
1,1,.006,-.002778,.015757*
20,1,.006,-.002778,.015757,0.0,.016,0.0*
1,1,.006,0.0,.016*
20,1,.006,0.0,.016,.002778,.015757,0.0*
1,1,.006,.002778,.015757*
20,1,.006,.002778,.015757,.005472,.015035,0.0*
1,1,.006,.005472,.015035*
20,1,.006,.005472,.015035,.008,.013856,0.0*
1,1,.006,.008,.013856*
20,1,.006,.008,.013856,.010285,.012257,0.0*
1,1,.006,.010285,.012257*
20,1,.006,.010285,.012257,.012257,.010285,0.0*
1,1,.006,.012257,.010285*
20,1,.006,.012257,.010285,.013856,.008,0.0*
1,1,.006,.013856,.008*
20,1,.006,.013856,.008,.015035,.005472,0.0*
1,1,.006,.015035,.005472*
20,1,.006,.015035,.005472,.015757,.002778,0.0*
1,1,.006,.015757,.002778*
20,1,.006,.015757,.002778,.016,0.0,0.0*
1,1,.006,.016,0.0*
1,1,.006,-.0067,.008*
20,1,.006,-.0067,.008,0.0,-.008,0.0*
1,1,.006,0.0,-.008*
20,1,.006,0.0,-.008,.0067,.008,0.0*
1,1,.006,.0067,.008*
%
%ADD12MACRO12*%
%ADD14C,.006*%
G75*
%LPD*%
G75*
G54D10*
X-57050Y124000D03*
X10000Y10000D03*
Y80000D03*
X150000Y10000D03*
Y80000D03*
G54D11*
X-57050Y149000D03*
X45000Y85000D03*
X55000D03*
X65000D03*
X75000D03*
X85000D03*
X95000D03*
X105000D03*
X115000D03*
G54D12*
X-57050Y174000D03*
X45000Y16000D03*
X41000Y19000D03*
X37500Y22000D03*
X33000Y25000D03*
X49500Y45000D03*
X45000Y67000D03*
X41000Y73000D03*
X75000Y29000D03*
X77000Y50000D03*
X85000D03*
X73050Y62450D03*
X96550Y56550D03*
X108550D03*
Y62450D03*
G54D13*
X-57050Y199000D03*
X100000Y34500D03*
G54D14*
G01X-102000Y111500D02*
Y286500D01*
X381600D01*
Y111500D01*
X-102000D01*
G01Y136500D02*
X381600D01*
G01X-102000Y161500D02*
X381600D01*
G01X-102000Y186500D02*
X381600D01*
G01X-91000Y217750D02*
Y230250D01*
X-85100D01*
G01X-87280Y224210D02*
X-91000D01*
G01X-77510Y230250D02*
X-73790D01*
G01X-75650D02*
Y217750D01*
G01X-77510D02*
X-73790D01*
G01X-62320Y224000D02*
X-59220D01*
Y220250D01*
X-60150Y219000D01*
X-61240Y218170D01*
X-62780Y217750D01*
X-64330Y218170D01*
X-65420Y219000D01*
X-66350Y220250D01*
X-66970Y221710D01*
X-67280Y223370D01*
Y224830D01*
X-66970Y226080D01*
X-66350Y227540D01*
X-65420Y228790D01*
X-64490Y229620D01*
X-63250Y230250D01*
X-62170D01*
X-60930Y229830D01*
X-59990Y229000D01*
G01X-54260Y230250D02*
Y221290D01*
X-53640Y219420D01*
X-52400Y218170D01*
X-50850Y217750D01*
X-49300Y218170D01*
X-48060Y219420D01*
X-47440Y221290D01*
Y230250D01*
G01X-41550Y217750D02*
Y230250D01*
X-37680D01*
X-36440Y229620D01*
X-35660Y228790D01*
X-35350Y227120D01*
X-35660Y225460D01*
X-36590Y224420D01*
X-37680Y223790D01*
X-41550D01*
G01X-37680D02*
X-35350Y217750D01*
G01X-22950D02*
X-29150D01*
Y230250D01*
X-22950D01*
G01X-25430Y224210D02*
X-29150D01*
G01X-102000Y211500D02*
X381600D01*
G01X-102000Y236500D02*
X381600D01*
G01X-102000Y261500D02*
X381600D01*
G01X-12100Y236500D02*
Y111500D01*
G01X-18610Y267750D02*
Y280250D01*
X-15510D01*
X-14270Y279620D01*
X-13340Y278790D01*
X-12560Y277540D01*
X-11940Y276080D01*
X-11790Y274000D01*
X-11940Y271920D01*
X-12560Y270460D01*
X-13340Y269210D01*
X-14270Y268370D01*
X-15510Y267750D01*
X-18610D01*
G01X-5900D02*
Y280250D01*
X-2030D01*
X-790Y279620D01*
X-10Y278790D01*
X300Y277120D01*
X-10Y275460D01*
X-940Y274420D01*
X-2030Y273790D01*
X-5900D01*
G01X-2030D02*
X300Y267750D01*
G01X7740Y280250D02*
X11460D01*
G01X9600D02*
Y267750D01*
G01X7740D02*
X11460D01*
G01X18900Y280250D02*
Y267750D01*
X25100D01*
G01X31300Y280250D02*
Y267750D01*
X37500D01*
G01X62610Y279210D02*
X61680Y279830D01*
X60600Y280250D01*
X59360D01*
X57960Y279620D01*
X56880Y278580D01*
X56100Y277330D01*
X55480Y275250D01*
X55320Y273370D01*
X55640Y271500D01*
X56100Y270250D01*
X57030Y269000D01*
X58120Y268170D01*
X59200Y267750D01*
X60280D01*
X61370Y268170D01*
X62300Y268790D01*
X63080Y269620D01*
G01X68340Y267750D02*
Y280250D01*
G01X74860D02*
Y267750D01*
G01Y274000D02*
X68340D01*
G01X80120Y267750D02*
X84000Y280250D01*
X87880Y267750D01*
G01X86480Y272120D02*
X81520D01*
G01X93300Y267750D02*
Y280250D01*
X97170D01*
X98410Y279620D01*
X99190Y278790D01*
X99500Y277120D01*
X99190Y275460D01*
X98260Y274420D01*
X97170Y273790D01*
X93300D01*
G01X97170D02*
X99500Y267750D01*
G01X108800Y280250D02*
Y267750D01*
G01X105240Y280250D02*
X112360D01*
G01X121200Y267330D02*
X120890Y267540D01*
Y267960D01*
X121200Y268170D01*
X121510Y267960D01*
Y267540D01*
X121200Y267330D01*
G01Y272960D02*
X120890Y273170D01*
Y273580D01*
X121200Y273790D01*
X121510Y273580D01*
Y273170D01*
X121200Y272960D01*
G01X146000Y280250D02*
Y267750D01*
G01X142440Y280250D02*
X149560D01*
G01X158400Y267750D02*
X157160Y267960D01*
X156080Y268790D01*
X155140Y270040D01*
X154520Y271500D01*
X154210Y273170D01*
Y274830D01*
X154520Y276500D01*
X155140Y277960D01*
X156080Y279210D01*
X157160Y280040D01*
X158400Y280250D01*
X159640Y280040D01*
X160720Y279210D01*
X161660Y277960D01*
X162280Y276500D01*
X162590Y274830D01*
Y273170D01*
X162280Y271500D01*
X161660Y270040D01*
X160720Y268790D01*
X159640Y267960D01*
X158400Y267750D01*
G01X167700D02*
Y280250D01*
X171420D01*
X172660Y279620D01*
X173590Y278170D01*
X173900Y276500D01*
X173590Y274830D01*
X172810Y273580D01*
X171420Y272960D01*
X167700D01*
G01X195600Y280250D02*
Y267750D01*
G01X193430Y276080D02*
X197770D01*
G01X208000Y267750D02*
X207070Y267960D01*
X206140Y268790D01*
X205520Y270250D01*
X205210Y271920D01*
X205520Y273580D01*
X206140Y275040D01*
X207070Y275870D01*
X208000Y276080D01*
X208930Y275870D01*
X209860Y275040D01*
X210480Y273580D01*
X210640Y271920D01*
X210480Y270250D01*
X209860Y268790D01*
X208930Y267960D01*
X208000Y267750D01*
G01X234040Y274420D02*
X234660Y275040D01*
X235120Y276080D01*
X235440Y277540D01*
X235120Y278790D01*
X234510Y279620D01*
X233420Y280250D01*
X229240D01*
Y267750D01*
X234350D01*
X235440Y268580D01*
X236060Y269830D01*
X236360Y271290D01*
X236060Y272750D01*
X235120Y274000D01*
X234040Y274420D01*
X229240D01*
G01X245200Y267750D02*
X243960Y267960D01*
X242880Y268790D01*
X241940Y270040D01*
X241320Y271500D01*
X241010Y273170D01*
Y274830D01*
X241320Y276500D01*
X241940Y277960D01*
X242880Y279210D01*
X243960Y280040D01*
X245200Y280250D01*
X246440Y280040D01*
X247520Y279210D01*
X248460Y277960D01*
X249080Y276500D01*
X249390Y274830D01*
Y273170D01*
X249080Y271500D01*
X248460Y270040D01*
X247520Y268790D01*
X246440Y267960D01*
X245200Y267750D01*
G01X257600Y280250D02*
Y267750D01*
G01X254040Y280250D02*
X261160D01*
G01X270000D02*
Y267750D01*
G01X266440Y280250D02*
X273560D01*
G01X282400Y267750D02*
X281160Y267960D01*
X280080Y268790D01*
X279140Y270040D01*
X278520Y271500D01*
X278210Y273170D01*
Y274830D01*
X278520Y276500D01*
X279140Y277960D01*
X280080Y279210D01*
X281160Y280040D01*
X282400Y280250D01*
X283640Y280040D01*
X284720Y279210D01*
X285660Y277960D01*
X286280Y276500D01*
X286590Y274830D01*
Y273170D01*
X286280Y271500D01*
X285660Y270040D01*
X284720Y268790D01*
X283640Y267960D01*
X282400Y267750D01*
G01X290770D02*
Y280250D01*
X294800Y269830D01*
X298830Y280250D01*
Y267750D01*
G01X0Y0D02*
Y90000D01*
X160000D01*
Y0D01*
X0D01*
G01X11920Y242750D02*
X15800Y255250D01*
X19680Y242750D01*
G01X18280Y247120D02*
X13320D01*
G01X25100Y255250D02*
Y242750D01*
X31300D01*
G01X37500Y255250D02*
Y242750D01*
X43700D01*
G01X61990Y255250D02*
Y246290D01*
X62610Y244420D01*
X63850Y243170D01*
X65400Y242750D01*
X66950Y243170D01*
X68190Y244420D01*
X68810Y246290D01*
Y255250D01*
G01X74240Y242750D02*
Y255250D01*
X81360Y242750D01*
Y255250D01*
G01X88340D02*
X92060D01*
G01X90200D02*
Y242750D01*
G01X88340D02*
X92060D01*
G01X102600Y255250D02*
Y242750D01*
G01X99040Y255250D02*
X106160D01*
G01X111740Y244420D02*
X112990Y243370D01*
X114380Y242750D01*
X115620D01*
X116860Y243370D01*
X117790Y244420D01*
X118260Y245880D01*
X117950Y247330D01*
X117170Y248580D01*
X115770Y249420D01*
X113920Y249830D01*
X112830Y250670D01*
X112360Y252120D01*
X112680Y253580D01*
X113450Y254620D01*
X114530Y255250D01*
X115620D01*
X116710Y254830D01*
X117640Y253790D01*
G01X135920Y242750D02*
X139800Y255250D01*
X143680Y242750D01*
G01X142280Y247120D02*
X137320D01*
G01X149100Y242750D02*
Y255250D01*
X152970D01*
X154210Y254620D01*
X154990Y253790D01*
X155300Y252120D01*
X154990Y250460D01*
X154060Y249420D01*
X152970Y248790D01*
X149100D01*
G01X152970D02*
X155300Y242750D01*
G01X167700D02*
X161500D01*
Y255250D01*
X167700D01*
G01X165220Y249210D02*
X161500D01*
G01X187540Y255250D02*
X191260D01*
G01X189400D02*
Y242750D01*
G01X187540D02*
X191260D01*
G01X198240D02*
Y255250D01*
X205360Y242750D01*
Y255250D01*
G01X222570Y242750D02*
Y255250D01*
X226600Y244830D01*
X230630Y255250D01*
Y242750D01*
G01X237140Y255250D02*
X240860D01*
G01X239000D02*
Y242750D01*
G01X237140D02*
X240860D01*
G01X248300Y255250D02*
Y242750D01*
X254500D01*
G01X260540Y244420D02*
X261790Y243370D01*
X263180Y242750D01*
X264420D01*
X265660Y243370D01*
X266590Y244420D01*
X267060Y245880D01*
X266750Y247330D01*
X265970Y248580D01*
X264570Y249420D01*
X262720Y249830D01*
X261630Y250670D01*
X261160Y252120D01*
X261480Y253580D01*
X262250Y254620D01*
X263330Y255250D01*
X264420D01*
X265510Y254830D01*
X266440Y253790D01*
G01X57650Y117750D02*
Y130250D01*
X55790Y127750D01*
G01Y117750D02*
X59510D01*
G01X70050D02*
Y130250D01*
X68190Y127750D01*
G01Y117750D02*
X71910D01*
G01X82450D02*
X83530Y117960D01*
X84770Y118580D01*
X85550Y119620D01*
X85860Y121080D01*
X85550Y122540D01*
X84620Y123790D01*
X83220Y124420D01*
X81680D01*
X80740Y124830D01*
X79970Y125870D01*
X79660Y127330D01*
X80130Y128790D01*
X81210Y129830D01*
X82450Y130250D01*
X83690Y129830D01*
X84770Y128790D01*
X85240Y127330D01*
X84930Y125870D01*
X84160Y124830D01*
X83220Y124420D01*
X81680D01*
X80280Y123790D01*
X79350Y122540D01*
X79040Y121080D01*
X79350Y119620D01*
X80130Y118580D01*
X81370Y117960D01*
X82450Y117750D01*
G01X94850Y117330D02*
X94540Y117540D01*
Y117960D01*
X94850Y118170D01*
X95160Y117960D01*
Y117540D01*
X94850Y117330D01*
G01X107250Y117750D02*
Y130250D01*
X105390Y127750D01*
G01Y117750D02*
X109110D01*
G01X65710Y142750D02*
Y155250D01*
X59970Y146290D01*
X67730D01*
G01X76250Y155250D02*
X75010Y154830D01*
X74080Y153790D01*
X73460Y152540D01*
X72990Y150870D01*
X72840Y149000D01*
X72990Y147120D01*
X73460Y145460D01*
X74080Y144210D01*
X75010Y143170D01*
X76250Y142750D01*
X77490Y143170D01*
X78420Y144210D01*
X79040Y145460D01*
X79510Y147120D01*
X79660Y149000D01*
X79510Y150870D01*
X79040Y152540D01*
X78420Y153790D01*
X77490Y154830D01*
X76250Y155250D01*
G01X88650Y142330D02*
X88340Y142540D01*
Y142960D01*
X88650Y143170D01*
X88960Y142960D01*
Y142540D01*
X88650Y142330D01*
G01X98100Y153170D02*
X99040Y154420D01*
X100120Y155040D01*
X101360Y155250D01*
X102910Y154830D01*
X104000Y153790D01*
X104310Y152540D01*
X104150Y151290D01*
X103530Y150250D01*
X100430Y148170D01*
X99040Y146710D01*
X98100Y144620D01*
X97790Y142750D01*
X104310D01*
G01X63850Y167750D02*
Y180250D01*
X61990Y177750D01*
G01Y167750D02*
X65710D01*
G01X76250Y180250D02*
X75010Y179830D01*
X74080Y178790D01*
X73460Y177540D01*
X72990Y175870D01*
X72840Y174000D01*
X72990Y172120D01*
X73460Y170460D01*
X74080Y169210D01*
X75010Y168170D01*
X76250Y167750D01*
X77490Y168170D01*
X78420Y169210D01*
X79040Y170460D01*
X79510Y172120D01*
X79660Y174000D01*
X79510Y175870D01*
X79040Y177540D01*
X78420Y178790D01*
X77490Y179830D01*
X76250Y180250D01*
G01X88650Y167330D02*
X88340Y167540D01*
Y167960D01*
X88650Y168170D01*
X88960Y167960D01*
Y167540D01*
X88650Y167330D01*
G01X101050Y180250D02*
X99810Y179830D01*
X98880Y178790D01*
X98260Y177540D01*
X97790Y175870D01*
X97640Y174000D01*
X97790Y172120D01*
X98260Y170460D01*
X98880Y169210D01*
X99810Y168170D01*
X101050Y167750D01*
X102290Y168170D01*
X103220Y169210D01*
X103840Y170460D01*
X104310Y172120D01*
X104460Y174000D01*
X104310Y175870D01*
X103840Y177540D01*
X103220Y178790D01*
X102290Y179830D01*
X101050Y180250D01*
G01X70050Y192750D02*
X71130Y192960D01*
X72370Y193580D01*
X73150Y194620D01*
X73460Y196080D01*
X73150Y197540D01*
X72220Y198790D01*
X70820Y199420D01*
X69280D01*
X68340Y199830D01*
X67570Y200870D01*
X67260Y202330D01*
X67730Y203790D01*
X68810Y204830D01*
X70050Y205250D01*
X71290Y204830D01*
X72370Y203790D01*
X72840Y202330D01*
X72530Y200870D01*
X71760Y199830D01*
X70820Y199420D01*
X69280D01*
X67880Y198790D01*
X66950Y197540D01*
X66640Y196080D01*
X66950Y194620D01*
X67730Y193580D01*
X68970Y192960D01*
X70050Y192750D01*
G01X82450Y192330D02*
X82140Y192540D01*
Y192960D01*
X82450Y193170D01*
X82760Y192960D01*
Y192540D01*
X82450Y192330D01*
G01X94850Y205250D02*
X93610Y204830D01*
X92680Y203790D01*
X92060Y202540D01*
X91590Y200870D01*
X91440Y199000D01*
X91590Y197120D01*
X92060Y195460D01*
X92680Y194210D01*
X93610Y193170D01*
X94850Y192750D01*
X96090Y193170D01*
X97020Y194210D01*
X97640Y195460D01*
X98110Y197120D01*
X98260Y199000D01*
X98110Y200870D01*
X97640Y202540D01*
X97020Y203790D01*
X96090Y204830D01*
X94850Y205250D01*
G01X60590Y219420D02*
X61840Y218370D01*
X63230Y217750D01*
X64470D01*
X65710Y218370D01*
X66640Y219420D01*
X67110Y220880D01*
X66800Y222330D01*
X66020Y223580D01*
X64620Y224420D01*
X62770Y224830D01*
X61680Y225670D01*
X61210Y227120D01*
X61530Y228580D01*
X62300Y229620D01*
X63380Y230250D01*
X64470D01*
X65560Y229830D01*
X66490Y228790D01*
G01X74390Y230250D02*
X78110D01*
G01X76250D02*
Y217750D01*
G01X74390D02*
X78110D01*
G01X85700Y230250D02*
X91600D01*
X85700Y217750D01*
X91600D01*
G01X104150D02*
X97950D01*
Y230250D01*
X104150D01*
G01X101670Y224210D02*
X97950D01*
G01X181190Y117750D02*
Y130250D01*
X188310Y117750D01*
Y130250D01*
G01X197150Y117750D02*
X195910Y117960D01*
X194830Y118790D01*
X193890Y120040D01*
X193270Y121500D01*
X192960Y123170D01*
Y124830D01*
X193270Y126500D01*
X193890Y127960D01*
X194830Y129210D01*
X195910Y130040D01*
X197150Y130250D01*
X198390Y130040D01*
X199470Y129210D01*
X200410Y127960D01*
X201030Y126500D01*
X201340Y124830D01*
Y123170D01*
X201030Y121500D01*
X200410Y120040D01*
X199470Y118790D01*
X198390Y117960D01*
X197150Y117750D01*
G01X205990D02*
Y130250D01*
X213110Y117750D01*
Y130250D01*
G01X219940Y121920D02*
X223960D01*
G01X231250Y117750D02*
Y130250D01*
X234970D01*
X236210Y129620D01*
X237140Y128170D01*
X237450Y126500D01*
X237140Y124830D01*
X236360Y123580D01*
X234970Y122960D01*
X231250D01*
G01X243650Y130250D02*
Y117750D01*
X249850D01*
G01X255270D02*
X259150Y130250D01*
X263030Y117750D01*
G01X261630Y122120D02*
X256670D01*
G01X271550Y130250D02*
Y117750D01*
G01X267990Y130250D02*
X275110D01*
G01X287050Y117750D02*
X280850D01*
Y130250D01*
X287050D01*
G01X284570Y124210D02*
X280850D01*
G01X292940Y117750D02*
Y130250D01*
X296040D01*
X297280Y129620D01*
X298210Y128790D01*
X298990Y127540D01*
X299610Y126080D01*
X299760Y124000D01*
X299610Y121920D01*
X298990Y120460D01*
X298210Y119210D01*
X297280Y118370D01*
X296040Y117750D01*
X292940D01*
G01X177000Y236500D02*
Y111500D01*
G01X206450Y142750D02*
Y155250D01*
X210170D01*
X211410Y154620D01*
X212340Y153170D01*
X212650Y151500D01*
X212340Y149830D01*
X211560Y148580D01*
X210170Y147960D01*
X206450D01*
G01X218850Y155250D02*
Y142750D01*
X225050D01*
G01X230470D02*
X234350Y155250D01*
X238230Y142750D01*
G01X236830Y147120D02*
X231870D01*
G01X246750Y155250D02*
Y142750D01*
G01X243190Y155250D02*
X250310D01*
G01X262250Y142750D02*
X256050D01*
Y155250D01*
X262250D01*
G01X259770Y149210D02*
X256050D01*
G01X268140Y142750D02*
Y155250D01*
X271240D01*
X272480Y154620D01*
X273410Y153790D01*
X274190Y152540D01*
X274810Y151080D01*
X274960Y149000D01*
X274810Y146920D01*
X274190Y145460D01*
X273410Y144210D01*
X272480Y143370D01*
X271240Y142750D01*
X268140D01*
G01X206450Y167750D02*
Y180250D01*
X210170D01*
X211410Y179620D01*
X212340Y178170D01*
X212650Y176500D01*
X212340Y174830D01*
X211560Y173580D01*
X210170Y172960D01*
X206450D01*
G01X218850Y180250D02*
Y167750D01*
X225050D01*
G01X230470D02*
X234350Y180250D01*
X238230Y167750D01*
G01X236830Y172120D02*
X231870D01*
G01X246750Y180250D02*
Y167750D01*
G01X243190Y180250D02*
X250310D01*
G01X262250Y167750D02*
X256050D01*
Y180250D01*
X262250D01*
G01X259770Y174210D02*
X256050D01*
G01X268140Y167750D02*
Y180250D01*
X271240D01*
X272480Y179620D01*
X273410Y178790D01*
X274190Y177540D01*
X274810Y176080D01*
X274960Y174000D01*
X274810Y171920D01*
X274190Y170460D01*
X273410Y169210D01*
X272480Y168370D01*
X271240Y167750D01*
X268140D01*
G01X206450Y192750D02*
Y205250D01*
X210170D01*
X211410Y204620D01*
X212340Y203170D01*
X212650Y201500D01*
X212340Y199830D01*
X211560Y198580D01*
X210170Y197960D01*
X206450D01*
G01X218850Y205250D02*
Y192750D01*
X225050D01*
G01X230470D02*
X234350Y205250D01*
X238230Y192750D01*
G01X236830Y197120D02*
X231870D01*
G01X246750Y205250D02*
Y192750D01*
G01X243190Y205250D02*
X250310D01*
G01X262250Y192750D02*
X256050D01*
Y205250D01*
X262250D01*
G01X259770Y199210D02*
X256050D01*
G01X268140Y192750D02*
Y205250D01*
X271240D01*
X272480Y204620D01*
X273410Y203790D01*
X274190Y202540D01*
X274810Y201080D01*
X274960Y199000D01*
X274810Y196920D01*
X274190Y195460D01*
X273410Y194210D01*
X272480Y193370D01*
X271240Y192750D01*
X268140D01*
G01X206450Y217750D02*
Y230250D01*
X210170D01*
X211410Y229620D01*
X212340Y228170D01*
X212650Y226500D01*
X212340Y224830D01*
X211560Y223580D01*
X210170Y222960D01*
X206450D01*
G01X218850Y230250D02*
Y217750D01*
X225050D01*
G01X230470D02*
X234350Y230250D01*
X238230Y217750D01*
G01X236830Y222120D02*
X231870D01*
G01X246750Y230250D02*
Y217750D01*
G01X243190Y230250D02*
X250310D01*
G01X262250Y217750D02*
X256050D01*
Y230250D01*
X262250D01*
G01X259770Y224210D02*
X256050D01*
G01X268140Y217750D02*
Y230250D01*
X271240D01*
X272480Y229620D01*
X273410Y228790D01*
X274190Y227540D01*
X274810Y226080D01*
X274960Y224000D01*
X274810Y221920D01*
X274190Y220460D01*
X273410Y219210D01*
X272480Y218370D01*
X271240Y217750D01*
X268140D01*
G01X304100Y236500D02*
Y111500D01*
G01X330450Y217750D02*
X329210Y217960D01*
X328130Y218790D01*
X327190Y220040D01*
X326570Y221500D01*
X326260Y223170D01*
Y224830D01*
X326570Y226500D01*
X327190Y227960D01*
X328130Y229210D01*
X329210Y230040D01*
X330450Y230250D01*
X331690Y230040D01*
X332770Y229210D01*
X333710Y227960D01*
X334330Y226500D01*
X334640Y224830D01*
Y223170D01*
X334330Y221500D01*
X333710Y220040D01*
X332770Y218790D01*
X331690Y217960D01*
X330450Y217750D01*
G01X331690Y221080D02*
X333550Y217750D01*
G01X342850Y230250D02*
Y217750D01*
G01X339290Y230250D02*
X346410D01*
G01X355250Y217750D02*
Y223370D01*
X352150Y230250D01*
G01X358350D02*
X355250Y223370D01*
G01X344710Y117750D02*
Y130250D01*
X338970Y121290D01*
X346730D01*
G01X342850Y142750D02*
X343930Y142960D01*
X345170Y143580D01*
X345950Y144620D01*
X346260Y146080D01*
X345950Y147540D01*
X345020Y148790D01*
X343620Y149420D01*
X342080D01*
X341140Y149830D01*
X340370Y150870D01*
X340060Y152330D01*
X340530Y153790D01*
X341610Y154830D01*
X342850Y155250D01*
X344090Y154830D01*
X345170Y153790D01*
X345640Y152330D01*
X345330Y150870D01*
X344560Y149830D01*
X343620Y149420D01*
X342080D01*
X340680Y148790D01*
X339750Y147540D01*
X339440Y146080D01*
X339750Y144620D01*
X340530Y143580D01*
X341770Y142960D01*
X342850Y142750D01*
G01X336650Y167750D02*
Y180250D01*
X334790Y177750D01*
G01Y167750D02*
X338510D01*
G01X350910D02*
Y180250D01*
X345170Y171290D01*
X352930D01*
G01X342850Y192750D02*
Y205250D01*
X340990Y202750D01*
G01Y192750D02*
X344710D01*
M02*
