M48
INCH,TZ
T01C.008
T02C.01
T03C.0402
T04C.1181
;LEADER: 12 
;HEADER: 
;CODE  : ASCII 
;FILE  : Libra-1-2.drl for board #Taaaaai14004.tmp ... layers TOP and BOTTOM
;T01 Holesize 1. = 8.000000 Tolerance = +0.000000/-0.000000 PLATED MILS Quantity = 1
;T02 Holesize 2. = 10.000000 Tolerance = +0.000000/-0.000000 PLATED MILS Quantity = 14
;T03 Holesize 3. = 40.200000 Tolerance = +0.000000/-0.000000 PLATED MILS Quantity = 8
;T04 Holesize 4. = 118.100000 Tolerance = +0.000000/-0.000000 NON_PLATED MILS Quantity = 4
%
G90
T01
X100000Y34500
T02
X33000Y25000
X37500Y22000
X45000Y16000
X41000Y19000
X49500Y45000
X45000Y67000
X41000Y73000
X73050Y62450
X77000Y50000
X75000Y29000
X85000Y50000
X96550Y56550
X108550Y56550
X108550Y62450
T03
X45000Y85000
X55000Y85000
X65000Y85000
X75000Y85000
X85000Y85000
X95000Y85000
X105000Y85000
X115000Y85000
T04
X10000Y10000
X10000Y80000
X150000Y80000
X150000Y10000
M30
