G04 ================== begin FILE IDENTIFICATION RECORD ==================*
G04 Layout Name:  F:/WorkSpace/Annecy/Libra/Libra.brd*
G04 Film Name:    SILKCREEN_TOP*
G04 File Format:  Gerber RS274X*
G04 File Origin:  Cadence Allegro 16.6-2015-S066*
G04 Origin Date:  Thu Nov 09 18:13:41 2017*
G04 *
G04 Layer:  REF DES/SILKSCREEN_TOP*
G04 Layer:  PACKAGE GEOMETRY/SILKSCREEN_TOP*
G04 Layer:  BOARD GEOMETRY/OUTLINE*
G04 Layer:  BOARD GEOMETRY/SILKSCREEN_TOP*
G04 *
G04 Offset:    (0.0 0.0)*
G04 Mirror:    No*
G04 Mode:      Positive*
G04 Rotation:  0*
G04 FullContactRelief:  No*
G04 UndefLineWidth:     6.0*
G04 ================== end FILE IDENTIFICATION RECORD ====================*
%FSLAX55Y55*MOIN*%
%IR0*IPPOS*OFA0.00000B0.00000*MIA0B0*SFA1.00000B1.00000*%
%ADD10C,.002*%
%ADD11C,.02*%
%ADD12C,.006*%
G75*
%LPD*%
G75*
G54D10*
G01X34300Y20500D02*
Y25500D01*
X36250Y21330D01*
X38200Y25500D01*
Y20500D01*
G01X39850D02*
Y25500D01*
X41650D01*
X42250Y25250D01*
X42700Y24670D01*
X42850Y24000D01*
X42700Y23330D01*
X42320Y22830D01*
X41650Y22580D01*
X39850D01*
G01X44950Y25500D02*
Y20500D01*
X47950D01*
G01X49900Y21500D02*
X50350Y20920D01*
X50950Y20580D01*
X51630Y20500D01*
X52230Y20580D01*
X52830Y21000D01*
X53200Y21500D01*
X53270Y22000D01*
X53130Y22580D01*
X52600Y23000D01*
X52070Y23170D01*
X51400D01*
G01X52070D02*
X52520Y23420D01*
X52900Y23830D01*
X53050Y24330D01*
X52900Y24830D01*
X52520Y25250D01*
X51850Y25500D01*
X51180Y25420D01*
X50500Y25080D01*
G01X56650Y20500D02*
Y25500D01*
X55750Y24500D01*
G01Y20500D02*
X57550D01*
G01X61750D02*
Y25500D01*
X60850Y24500D01*
G01Y20500D02*
X62650D01*
G01X65200Y21250D02*
X65650Y20830D01*
X66170Y20580D01*
X66850Y20500D01*
X67530Y20670D01*
X68050Y21000D01*
X68430Y21580D01*
X68500Y22250D01*
X68350Y22920D01*
X67970Y23330D01*
X67450Y23670D01*
X66930Y23750D01*
X66400Y23670D01*
X65730Y23330D01*
X65950Y25500D01*
X67970D01*
G01X70070Y20500D02*
X71950Y25500D01*
X73830Y20500D01*
G01X73150Y22250D02*
X70750D01*
G01X75620Y24670D02*
X76080Y25170D01*
X76600Y25420D01*
X77200Y25500D01*
X77950Y25330D01*
X78480Y24920D01*
X78630Y24420D01*
X78550Y23920D01*
X78250Y23500D01*
X76750Y22670D01*
X76080Y22080D01*
X75620Y21250D01*
X75470Y20500D01*
X78630D01*
G54D11*
G01X32250Y16500D02*
X35250D01*
G01X33750D02*
Y6500D01*
G01X32250D02*
X35250D01*
G01X40500D02*
Y16500D01*
X43750Y8170D01*
X47000Y16500D01*
Y6500D01*
G01X51250Y16500D02*
Y6500D01*
X56250D01*
G01X66000D02*
Y13170D01*
G01Y12000D02*
X65500Y12670D01*
X64750Y13000D01*
X63880Y13170D01*
X63000Y12830D01*
X62250Y12170D01*
X61750Y11170D01*
X61500Y9830D01*
X61750Y8500D01*
X62250Y7500D01*
X63000Y6830D01*
X63880Y6500D01*
X64750Y6670D01*
X65500Y7170D01*
X66000Y7830D01*
G01X71500Y6500D02*
Y16500D01*
G01Y11500D02*
X72130Y12500D01*
X72880Y13000D01*
X73620Y13170D01*
X74750Y12830D01*
X75500Y12170D01*
X76000Y11000D01*
Y9670D01*
X75750Y8330D01*
X75250Y7330D01*
X74370Y6670D01*
X73620Y6500D01*
X72880Y6670D01*
X72130Y7170D01*
X71500Y8000D01*
G54D12*
G01X0Y0D02*
Y90000D01*
X160000D01*
Y0D01*
X0D01*
G01X18380Y66500D02*
Y69600D01*
X19340D01*
X19650Y69440D01*
X19840Y69240D01*
X19920Y68820D01*
X19840Y68410D01*
X19610Y68150D01*
X19340Y68000D01*
X18380D01*
G01X19340D02*
X19920Y66500D01*
G01X20810Y67120D02*
X21040Y66760D01*
X21340Y66550D01*
X21690Y66500D01*
X22000Y66550D01*
X22300Y66810D01*
X22490Y67120D01*
X22530Y67430D01*
X22460Y67790D01*
X22190Y68050D01*
X21920Y68150D01*
X21570D01*
G01X21920D02*
X22150Y68310D01*
X22340Y68570D01*
X22420Y68880D01*
X22340Y69190D01*
X22150Y69440D01*
X21800Y69600D01*
X21460Y69550D01*
X21110Y69340D01*
G01X29210Y64740D02*
X24880D01*
Y69260D01*
X29210D01*
G01X18380Y72000D02*
Y75100D01*
X19340D01*
X19650Y74940D01*
X19840Y74740D01*
X19920Y74320D01*
X19840Y73910D01*
X19610Y73650D01*
X19340Y73500D01*
X18380D01*
G01X19340D02*
X19920Y72000D01*
G01X20920Y73290D02*
X21190Y73650D01*
X21420Y73860D01*
X21730Y73960D01*
X22000Y73860D01*
X22190Y73650D01*
X22340Y73340D01*
X22380Y72980D01*
X22340Y72670D01*
X22190Y72360D01*
X21960Y72100D01*
X21690Y72000D01*
X21380Y72100D01*
X21110Y72410D01*
X20960Y72880D01*
X20920Y73390D01*
X21000Y74070D01*
X21110Y74430D01*
X21300Y74790D01*
X21570Y75050D01*
X21840Y75100D01*
X22110Y75000D01*
X22300Y74740D01*
G01X29210Y70740D02*
X24880D01*
Y75260D01*
X29210D01*
G01X49160Y40410D02*
X68840D01*
Y28590D01*
X49160D01*
Y40410D01*
G01X39810Y36600D02*
Y34380D01*
X39960Y33910D01*
X40270Y33600D01*
X40650Y33500D01*
X41030Y33600D01*
X41340Y33910D01*
X41490Y34380D01*
Y36600D01*
G01X42420Y36080D02*
X42650Y36390D01*
X42920Y36550D01*
X43230Y36600D01*
X43610Y36500D01*
X43880Y36240D01*
X43960Y35930D01*
X43920Y35620D01*
X43760Y35360D01*
X43000Y34840D01*
X42650Y34480D01*
X42420Y33960D01*
X42340Y33500D01*
X43960D01*
G01X46490Y46840D02*
X46260Y47000D01*
X46000Y47100D01*
X45690D01*
X45340Y46940D01*
X45080Y46690D01*
X44880Y46380D01*
X44730Y45860D01*
X44690Y45390D01*
X44770Y44930D01*
X44880Y44620D01*
X45110Y44310D01*
X45380Y44100D01*
X45650Y44000D01*
X45920D01*
X46190Y44100D01*
X46420Y44260D01*
X46610Y44460D01*
G01X48610Y44000D02*
Y47100D01*
X47190Y44880D01*
X49110D01*
G01X44500Y79350D02*
X47600D01*
X45020Y78350D01*
X47600Y77350D01*
X44500D01*
G01X43470Y77000D02*
Y74700D01*
G01X47600Y73810D02*
Y72890D01*
G01Y73350D02*
X44500D01*
G01Y73810D02*
Y72890D01*
G01Y71730D02*
X47600D01*
X44500Y69970D01*
X47600D01*
G01Y68350D02*
X44500D01*
G01X47600Y69230D02*
Y67470D01*
G01X47080Y66580D02*
X47390Y66350D01*
X47550Y66080D01*
X47600Y65770D01*
X47500Y65390D01*
X47240Y65120D01*
X46930Y65040D01*
X46620Y65080D01*
X46360Y65240D01*
X45840Y66000D01*
X45480Y66350D01*
X44960Y66580D01*
X44500Y66660D01*
Y65040D01*
G01X30790Y64740D02*
X35120D01*
Y69260D01*
X30790D01*
G01Y70740D02*
X35120D01*
Y75260D01*
X30790D01*
G01X120000Y90000D02*
X40000D01*
Y80000D01*
X120000D01*
Y90000D01*
G01X67860Y40410D02*
X68840Y39420D01*
G01X58210Y47260D02*
X53880D01*
Y42740D01*
X58210D01*
G01X59790Y47260D02*
X64120D01*
Y42740D01*
X59790D01*
G01X69990Y51340D02*
X69760Y51500D01*
X69500Y51600D01*
X69190D01*
X68840Y51440D01*
X68580Y51190D01*
X68380Y50880D01*
X68230Y50360D01*
X68190Y49890D01*
X68270Y49430D01*
X68380Y49120D01*
X68610Y48810D01*
X68880Y48600D01*
X69150Y48500D01*
X69420D01*
X69690Y48600D01*
X69920Y48760D01*
X70110Y48960D01*
G01X71650Y48500D02*
Y51600D01*
X71190Y50980D01*
G01Y48500D02*
X72110D01*
G01X70210Y42740D02*
X65880D01*
Y47260D01*
X70210D01*
G01X63500Y79350D02*
X66600D01*
X64020Y78350D01*
X66600Y77350D01*
X63500D01*
G01X62470Y77000D02*
Y74700D01*
G01X63910Y74160D02*
X63650Y73850D01*
X63500Y73500D01*
Y73200D01*
X63650Y72890D01*
X63910Y72660D01*
X64280Y72540D01*
X64640Y72620D01*
X64950Y72810D01*
X65150Y73160D01*
X65260Y73620D01*
X65460Y73890D01*
X65820Y74000D01*
X66190Y73920D01*
X66440Y73730D01*
X66600Y73470D01*
Y73200D01*
X66500Y72930D01*
X66240Y72700D01*
G01X63500Y71690D02*
X66600D01*
Y70930D01*
X66440Y70620D01*
X66240Y70390D01*
X65930Y70200D01*
X65570Y70040D01*
X65050Y70010D01*
X64530Y70040D01*
X64170Y70200D01*
X63860Y70390D01*
X63650Y70620D01*
X63500Y70930D01*
Y71690D01*
G01Y69310D02*
X66600Y68350D01*
X63500Y67390D01*
G01X64580Y67740D02*
Y68960D01*
G01X54000Y79350D02*
X57100D01*
X54520Y78350D01*
X57100Y77350D01*
X54000D01*
G01X52970Y77000D02*
Y74700D01*
G01X57100Y73810D02*
Y72890D01*
G01Y73350D02*
X54000D01*
G01Y73810D02*
Y72890D01*
G01Y71730D02*
X57100D01*
X54000Y69970D01*
X57100D01*
G01Y68350D02*
X54000D01*
G01X57100Y69230D02*
Y67470D01*
G01X54000Y65850D02*
X57100D01*
X56480Y66310D01*
G01X54000D02*
Y65390D01*
G01X85670Y20000D02*
Y25000D01*
G01X88830D02*
Y20000D01*
G01Y22500D02*
X85670D01*
G01X91400Y20000D02*
Y25000D01*
X92900D01*
X93500Y24750D01*
X93950Y24420D01*
X94330Y23920D01*
X94630Y23330D01*
X94700Y22500D01*
X94630Y21670D01*
X94330Y21080D01*
X93950Y20580D01*
X93500Y20250D01*
X92900Y20000D01*
X91400D01*
G01X100500Y24580D02*
X100050Y24830D01*
X99530Y25000D01*
X98930D01*
X98250Y24750D01*
X97730Y24330D01*
X97350Y23830D01*
X97050Y23000D01*
X96970Y22250D01*
X97130Y21500D01*
X97350Y21000D01*
X97800Y20500D01*
X98330Y20170D01*
X98850Y20000D01*
X99370D01*
X99900Y20170D01*
X100350Y20420D01*
X100730Y20750D01*
G01X104650Y20000D02*
Y25000D01*
X103750Y24000D01*
G01Y20000D02*
X105550D01*
G01X110450Y25000D02*
X109850Y24830D01*
X109400Y24420D01*
X109100Y23920D01*
X108870Y23250D01*
X108800Y22500D01*
X108870Y21750D01*
X109100Y21080D01*
X109400Y20580D01*
X109850Y20170D01*
X110450Y20000D01*
X111050Y20170D01*
X111500Y20580D01*
X111800Y21080D01*
X112030Y21750D01*
X112100Y22500D01*
X112030Y23250D01*
X111800Y23920D01*
X111500Y24420D01*
X111050Y24830D01*
X110450Y25000D01*
G01X116250Y20000D02*
X116770Y20080D01*
X117370Y20330D01*
X117750Y20750D01*
X117900Y21330D01*
X117750Y21920D01*
X117300Y22420D01*
X116620Y22670D01*
X115880D01*
X115420Y22830D01*
X115050Y23250D01*
X114900Y23830D01*
X115130Y24420D01*
X115650Y24830D01*
X116250Y25000D01*
X116850Y24830D01*
X117370Y24420D01*
X117600Y23830D01*
X117450Y23250D01*
X117080Y22830D01*
X116620Y22670D01*
X115880D01*
X115200Y22420D01*
X114750Y21920D01*
X114600Y21330D01*
X114750Y20750D01*
X115130Y20330D01*
X115730Y20080D01*
X116250Y20000D01*
G01X122050Y25000D02*
X121450Y24830D01*
X121000Y24420D01*
X120700Y23920D01*
X120470Y23250D01*
X120400Y22500D01*
X120470Y21750D01*
X120700Y21080D01*
X121000Y20580D01*
X121450Y20170D01*
X122050Y20000D01*
X122650Y20170D01*
X123100Y20580D01*
X123400Y21080D01*
X123630Y21750D01*
X123700Y22500D01*
X123630Y23250D01*
X123400Y23920D01*
X123100Y24420D01*
X122650Y24830D01*
X122050Y25000D01*
G01X80380Y49000D02*
Y52100D01*
X81340D01*
X81650Y51940D01*
X81840Y51740D01*
X81920Y51320D01*
X81840Y50910D01*
X81610Y50650D01*
X81340Y50500D01*
X80380D01*
G01X81340D02*
X81920Y49000D01*
G01X84110D02*
Y52100D01*
X82690Y49880D01*
X84610D01*
G01X92710Y51760D02*
X88380D01*
Y47240D01*
X92710D01*
G01X82490Y37840D02*
X82260Y38000D01*
X82000Y38100D01*
X81690D01*
X81340Y37940D01*
X81080Y37690D01*
X80880Y37380D01*
X80730Y36860D01*
X80690Y36390D01*
X80770Y35930D01*
X80880Y35620D01*
X81110Y35310D01*
X81380Y35100D01*
X81650Y35000D01*
X81920D01*
X82190Y35100D01*
X82420Y35260D01*
X82610Y35460D01*
G01X83310Y35620D02*
X83540Y35260D01*
X83840Y35050D01*
X84190Y35000D01*
X84500Y35050D01*
X84800Y35310D01*
X84990Y35620D01*
X85030Y35930D01*
X84960Y36290D01*
X84690Y36550D01*
X84420Y36650D01*
X84070D01*
G01X84420D02*
X84650Y36810D01*
X84840Y37070D01*
X84920Y37380D01*
X84840Y37690D01*
X84650Y37940D01*
X84300Y38100D01*
X83960Y38050D01*
X83610Y37840D01*
G01X72740Y34710D02*
Y30380D01*
X77260D01*
Y34710D01*
G01X72740Y36290D02*
Y40620D01*
X77260D01*
Y36290D01*
G01X71790Y42740D02*
X76120D01*
Y47260D01*
X71790D01*
G01X84000Y79160D02*
X87100D01*
G01Y77540D02*
X84000D01*
G01X85550D02*
Y79160D01*
G01X82970Y77000D02*
Y74700D01*
G01X84410Y74160D02*
X84150Y73850D01*
X84000Y73500D01*
Y73200D01*
X84150Y72890D01*
X84410Y72660D01*
X84780Y72540D01*
X85140Y72620D01*
X85450Y72810D01*
X85650Y73160D01*
X85760Y73620D01*
X85960Y73890D01*
X86320Y74000D01*
X86690Y73920D01*
X86940Y73730D01*
X87100Y73470D01*
Y73200D01*
X87000Y72930D01*
X86740Y72700D01*
G01X84000Y71690D02*
X87100D01*
Y70930D01*
X86940Y70620D01*
X86740Y70390D01*
X86430Y70200D01*
X86070Y70040D01*
X85550Y70010D01*
X85030Y70040D01*
X84670Y70200D01*
X84360Y70390D01*
X84150Y70620D01*
X84000Y70930D01*
Y71690D01*
G01Y69310D02*
X87100Y68350D01*
X84000Y67390D01*
G01X85080Y67740D02*
Y68960D01*
G01X74000Y79350D02*
X77100D01*
X74520Y78350D01*
X77100Y77350D01*
X74000D01*
G01X72970Y77000D02*
Y74700D01*
G01X74410Y74160D02*
X74150Y73850D01*
X74000Y73500D01*
Y73200D01*
X74150Y72890D01*
X74410Y72660D01*
X74780Y72540D01*
X75140Y72620D01*
X75450Y72810D01*
X75650Y73160D01*
X75760Y73620D01*
X75960Y73890D01*
X76320Y74000D01*
X76690Y73920D01*
X76940Y73730D01*
X77100Y73470D01*
Y73200D01*
X77000Y72930D01*
X76740Y72700D01*
G01X76840Y70010D02*
X77000Y70240D01*
X77100Y70500D01*
Y70810D01*
X76940Y71160D01*
X76690Y71420D01*
X76380Y71620D01*
X75860Y71770D01*
X75390Y71810D01*
X74930Y71730D01*
X74620Y71620D01*
X74310Y71390D01*
X74100Y71120D01*
X74000Y70850D01*
Y70580D01*
X74100Y70310D01*
X74260Y70080D01*
X74460Y69890D01*
G01X77100Y69120D02*
X74000D01*
Y67580D01*
G01X70880Y58000D02*
Y61100D01*
X71840D01*
X72150Y60940D01*
X72340Y60740D01*
X72420Y60320D01*
X72340Y59910D01*
X72110Y59650D01*
X71840Y59500D01*
X70880D01*
G01X71840D02*
X72420Y58000D01*
G01X73420Y60580D02*
X73650Y60890D01*
X73920Y61050D01*
X74230Y61100D01*
X74610Y61000D01*
X74880Y60740D01*
X74960Y60430D01*
X74920Y60120D01*
X74760Y59860D01*
X74000Y59340D01*
X73650Y58980D01*
X73420Y58460D01*
X73340Y58000D01*
X74960D01*
G01X78240Y58710D02*
Y54380D01*
X82760D01*
Y58710D01*
G01X78240Y60290D02*
Y64620D01*
X82760D01*
Y60290D01*
G01X98810Y26100D02*
Y23880D01*
X98960Y23410D01*
X99270Y23100D01*
X99650Y23000D01*
X100030Y23100D01*
X100340Y23410D01*
X100490Y23880D01*
Y26100D01*
G01X102150Y23000D02*
Y26100D01*
X101690Y25480D01*
G01Y23000D02*
X102610D01*
G01X93900Y28400D02*
X107090D01*
Y40600D01*
X92910D01*
Y28400D01*
X93900D01*
G01X92910Y39810D02*
X93700Y40600D01*
G01X107710Y51760D02*
X103380D01*
Y47240D01*
X107710D01*
G01X109290Y51760D02*
X113620D01*
Y47240D01*
X109290D01*
G01X94290Y51760D02*
X98620D01*
Y47240D01*
X94290D01*
G01X94000Y79160D02*
X97100D01*
G01Y77540D02*
X94000D01*
G01X95550D02*
Y79160D01*
G01X92970Y77000D02*
Y74700D01*
G01X94410Y74160D02*
X94150Y73850D01*
X94000Y73500D01*
Y73200D01*
X94150Y72890D01*
X94410Y72660D01*
X94780Y72540D01*
X95140Y72620D01*
X95450Y72810D01*
X95650Y73160D01*
X95760Y73620D01*
X95960Y73890D01*
X96320Y74000D01*
X96690Y73920D01*
X96940Y73730D01*
X97100Y73470D01*
Y73200D01*
X97000Y72930D01*
X96740Y72700D01*
G01X96840Y70010D02*
X97000Y70240D01*
X97100Y70500D01*
Y70810D01*
X96940Y71160D01*
X96690Y71420D01*
X96380Y71620D01*
X95860Y71770D01*
X95390Y71810D01*
X94930Y71730D01*
X94620Y71620D01*
X94310Y71390D01*
X94100Y71120D01*
X94000Y70850D01*
Y70580D01*
X94100Y70310D01*
X94260Y70080D01*
X94460Y69890D01*
G01X97100Y69120D02*
X94000D01*
Y67580D01*
G01X105550Y77620D02*
Y76850D01*
X104620D01*
X104310Y77080D01*
X104100Y77350D01*
X104000Y77730D01*
X104100Y78120D01*
X104310Y78390D01*
X104620Y78620D01*
X104980Y78770D01*
X105390Y78850D01*
X105760D01*
X106070Y78770D01*
X106430Y78620D01*
X106740Y78390D01*
X106940Y78160D01*
X107100Y77850D01*
Y77580D01*
X107000Y77280D01*
X106790Y77040D01*
G01X104000Y76230D02*
X107100D01*
X104000Y74470D01*
X107100D01*
G01X104000Y73690D02*
X107100D01*
Y72930D01*
X106940Y72620D01*
X106740Y72390D01*
X106430Y72200D01*
X106070Y72040D01*
X105550Y72010D01*
X105030Y72040D01*
X104670Y72200D01*
X104360Y72390D01*
X104150Y72620D01*
X104000Y72930D01*
Y73690D01*
G01X123490Y32340D02*
X123260Y32500D01*
X123000Y32600D01*
X122690D01*
X122340Y32440D01*
X122080Y32190D01*
X121880Y31880D01*
X121730Y31360D01*
X121690Y30890D01*
X121770Y30430D01*
X121880Y30120D01*
X122110Y29810D01*
X122380Y29600D01*
X122650Y29500D01*
X122920D01*
X123190Y29600D01*
X123420Y29760D01*
X123610Y29960D01*
G01X124420Y32080D02*
X124650Y32390D01*
X124920Y32550D01*
X125230Y32600D01*
X125610Y32500D01*
X125880Y32240D01*
X125960Y31930D01*
X125920Y31620D01*
X125760Y31360D01*
X125000Y30840D01*
X124650Y30480D01*
X124420Y29960D01*
X124340Y29500D01*
X125960D01*
G01X112740Y30710D02*
Y26380D01*
X117260D01*
Y30710D01*
G01X118380Y49000D02*
Y52100D01*
X119340D01*
X119650Y51940D01*
X119840Y51740D01*
X119920Y51320D01*
X119840Y50910D01*
X119610Y50650D01*
X119340Y50500D01*
X118380D01*
G01X119340D02*
X119920Y49000D01*
G01X120810Y49460D02*
X121040Y49210D01*
X121300Y49050D01*
X121650Y49000D01*
X122000Y49100D01*
X122260Y49310D01*
X122460Y49670D01*
X122490Y50080D01*
X122420Y50500D01*
X122220Y50760D01*
X121960Y50960D01*
X121690Y51010D01*
X121420Y50960D01*
X121080Y50760D01*
X121190Y52100D01*
X122220D01*
G01X112740Y32290D02*
Y36620D01*
X117260D01*
Y32290D01*
G01X121880Y58500D02*
Y61600D01*
X122840D01*
X123150Y61440D01*
X123340Y61240D01*
X123420Y60820D01*
X123340Y60410D01*
X123110Y60150D01*
X122840Y60000D01*
X121880D01*
G01X122840D02*
X123420Y58500D01*
G01X125150D02*
Y61600D01*
X124690Y60980D01*
G01Y58500D02*
X125610D01*
G01X112740Y58710D02*
Y54380D01*
X117260D01*
Y58710D01*
G01X112740Y60290D02*
Y64620D01*
X117260D01*
Y60290D01*
G01X117100Y78810D02*
X114000Y77850D01*
X117100Y76890D01*
G01X114000Y76190D02*
X117100D01*
Y75430D01*
X116940Y75120D01*
X116740Y74890D01*
X116430Y74700D01*
X116070Y74540D01*
X115550Y74510D01*
X115030Y74540D01*
X114670Y74700D01*
X114360Y74890D01*
X114150Y75120D01*
X114000Y75430D01*
Y76190D01*
G01Y73690D02*
X117100D01*
Y72930D01*
X116940Y72620D01*
X116740Y72390D01*
X116430Y72200D01*
X116070Y72040D01*
X115550Y72010D01*
X115030Y72040D01*
X114670Y72200D01*
X114360Y72390D01*
X114150Y72620D01*
X114000Y72930D01*
Y73690D01*
G01X121880Y84620D02*
X122080Y84310D01*
X122300Y84100D01*
X122570Y84000D01*
X122880Y84100D01*
X123110Y84310D01*
X123340Y84620D01*
X123420Y85030D01*
Y87100D01*
G01X125150Y84000D02*
Y87100D01*
X124690Y86480D01*
G01Y84000D02*
X125610D01*
M02*
