G04 ================== begin FILE IDENTIFICATION RECORD ==================*
G04 Layout Name:  F:/WorkSpace/Annecy/Libra/Libra.brd*
G04 Film Name:    SILKCREEN_BOTTOM*
G04 File Format:  Gerber RS274X*
G04 File Origin:  Cadence Allegro 16.6-2015-S066*
G04 Origin Date:  Thu Nov 09 18:13:41 2017*
G04 *
G04 Layer:  REF DES/SILKSCREEN_BOTTOM*
G04 Layer:  PACKAGE GEOMETRY/SILKSCREEN_BOTTOM*
G04 Layer:  BOARD GEOMETRY/OUTLINE*
G04 Layer:  BOARD GEOMETRY/SILKSCREEN_BOTTOM*
G04 *
G04 Offset:    (0.0 0.0)*
G04 Mirror:    No*
G04 Mode:      Positive*
G04 Rotation:  0*
G04 FullContactRelief:  No*
G04 UndefLineWidth:     6.0*
G04 ================== end FILE IDENTIFICATION RECORD ====================*
%FSLAX55Y55*MOIN*%
%IR0*IPPOS*OFA0.00000B0.00000*MIA0B0*SFA1.00000B1.00000*%
%ADD10C,.006*%
G75*
%LPD*%
G75*
G54D10*
G01X0Y0D02*
Y90000D01*
X160000D01*
Y0D01*
X0D01*
G01X156300Y30750D02*
X155770Y30420D01*
X155170Y30330D01*
X154650Y30420D01*
X154200Y30830D01*
X153900Y31420D01*
Y35330D01*
G01Y34670D02*
X154200Y35000D01*
X154650Y35250D01*
X155170Y35330D01*
X155770Y35170D01*
X156150Y34830D01*
X156450Y34250D01*
X156600Y33670D01*
X156530Y33170D01*
X156220Y32580D01*
X155770Y32170D01*
X155170Y32000D01*
X154730Y32080D01*
X154200Y32420D01*
X153900Y32750D01*
G01X149450Y35330D02*
Y32000D01*
G01Y36670D02*
X149600Y36750D01*
Y36920D01*
X149450Y37000D01*
X149300Y36920D01*
Y36750D01*
X149450Y36670D01*
G01X143650Y37000D02*
Y32000D01*
G01X144700Y35330D02*
X142600D01*
G01X139130Y32000D02*
Y37000D01*
G01Y34580D02*
X138750Y35000D01*
X138370Y35250D01*
X137770Y35330D01*
X137330Y35250D01*
X136800Y34920D01*
X136570Y34420D01*
Y32000D01*
G01X133330Y35330D02*
Y33000D01*
X133020Y32420D01*
X132570Y32080D01*
X132050Y32000D01*
X131530Y32080D01*
X131080Y32420D01*
X130770Y33000D01*
G01Y32000D02*
Y35330D01*
G01X127600Y32000D02*
Y37000D01*
G01Y34500D02*
X127220Y35000D01*
X126770Y35250D01*
X126330Y35330D01*
X125650Y35170D01*
X125200Y34830D01*
X124900Y34250D01*
Y33580D01*
X125050Y32920D01*
X125350Y32420D01*
X125880Y32080D01*
X126330Y32000D01*
X126770Y32080D01*
X127220Y32330D01*
X127600Y32750D01*
G01X120450Y31830D02*
X120600Y31920D01*
Y32080D01*
X120450Y32170D01*
X120300Y32080D01*
Y31920D01*
X120450Y31830D01*
G01X113450Y34920D02*
X113970Y35250D01*
X114420Y35330D01*
X115020Y35170D01*
X115480Y34830D01*
X115770Y34250D01*
X115850Y33670D01*
X115770Y33080D01*
X115480Y32580D01*
X115020Y32170D01*
X114420Y32000D01*
X113900Y32170D01*
X113450Y32500D01*
G01X108850Y32000D02*
X109300Y32080D01*
X109750Y32420D01*
X110050Y33000D01*
X110200Y33670D01*
X110050Y34330D01*
X109750Y34920D01*
X109300Y35250D01*
X108850Y35330D01*
X108400Y35250D01*
X107950Y34920D01*
X107650Y34330D01*
X107570Y33670D01*
X107650Y33000D01*
X107950Y32420D01*
X108400Y32080D01*
X108850Y32000D01*
G01X105300D02*
Y35330D01*
G01Y34420D02*
X105080Y34830D01*
X104700Y35170D01*
X104170Y35330D01*
X103650Y35170D01*
X103280Y34830D01*
X103050Y34420D01*
Y32000D01*
G01Y34420D02*
X102820Y34830D01*
X102450Y35170D01*
X101930Y35330D01*
X101400Y35170D01*
X101020Y34830D01*
X100800Y34330D01*
Y32000D01*
G01X98600Y31830D02*
X95900Y37000D01*
G01X93700D02*
X92650Y32000D01*
X91450Y37000D01*
X90250Y32000D01*
X89200Y37000D01*
G01X85650Y32000D02*
X86100Y32080D01*
X86550Y32420D01*
X86850Y33000D01*
X87000Y33670D01*
X86850Y34330D01*
X86550Y34920D01*
X86100Y35250D01*
X85650Y35330D01*
X85200Y35250D01*
X84750Y34920D01*
X84450Y34330D01*
X84370Y33670D01*
X84450Y33000D01*
X84750Y32420D01*
X85200Y32080D01*
X85650Y32000D01*
G01X81730Y35330D02*
X80820Y32000D01*
X79850Y35330D01*
X78880Y32000D01*
X77970Y35330D01*
G01X75550Y37000D02*
Y32000D01*
X72550D01*
G01X69900D02*
Y37000D01*
X68400D01*
X67800Y36750D01*
X67350Y36420D01*
X66970Y35920D01*
X66670Y35330D01*
X66600Y34500D01*
X66670Y33670D01*
X66970Y33080D01*
X67350Y32580D01*
X67800Y32250D01*
X68400Y32000D01*
X69900D01*
G01X62450D02*
X62900Y32080D01*
X63350Y32420D01*
X63650Y33000D01*
X63800Y33670D01*
X63650Y34330D01*
X63350Y34920D01*
X62900Y35250D01*
X62450Y35330D01*
X62000Y35250D01*
X61550Y34920D01*
X61250Y34330D01*
X61170Y33670D01*
X61250Y33000D01*
X61550Y32420D01*
X62000Y32080D01*
X62450Y32000D01*
G01X57700Y30750D02*
X57170Y30420D01*
X56570Y30330D01*
X56050Y30420D01*
X55600Y30830D01*
X55300Y31420D01*
Y35330D01*
G01Y34670D02*
X55600Y35000D01*
X56050Y35250D01*
X56570Y35330D01*
X57170Y35170D01*
X57550Y34830D01*
X57850Y34250D01*
X58000Y33670D01*
X57930Y33170D01*
X57620Y32580D01*
X57170Y32170D01*
X56570Y32000D01*
X56130Y32080D01*
X55600Y32420D01*
X55300Y32750D01*
G01X52200Y31830D02*
X49500Y37000D01*
G01X46930Y32000D02*
X45050Y37000D01*
X43170Y32000D01*
G01X43850Y33750D02*
X46250D01*
G01X40530Y32000D02*
Y35330D01*
G01Y34500D02*
X40220Y34920D01*
X39770Y35250D01*
X39170Y35330D01*
X38650Y35250D01*
X38200Y34920D01*
X37970Y34330D01*
Y32000D01*
G01X34730D02*
Y35330D01*
G01Y34500D02*
X34420Y34920D01*
X33970Y35250D01*
X33370Y35330D01*
X32850Y35250D01*
X32400Y34920D01*
X32170Y34330D01*
Y32000D01*
G01X28770Y34250D02*
X26370D01*
X26600Y34830D01*
X26970Y35170D01*
X27500Y35330D01*
X28020Y35250D01*
X28480Y35000D01*
X28770Y34420D01*
X28930Y33920D01*
Y33420D01*
X28770Y32920D01*
X28400Y32420D01*
X27950Y32080D01*
X27420Y32000D01*
X26900Y32170D01*
X26370Y32670D01*
G01X20650Y34920D02*
X21170Y35250D01*
X21620Y35330D01*
X22220Y35170D01*
X22680Y34830D01*
X22970Y34250D01*
X23050Y33670D01*
X22970Y33080D01*
X22680Y32580D01*
X22220Y32170D01*
X21620Y32000D01*
X21100Y32170D01*
X20650Y32500D01*
G01X17630Y30500D02*
X17170Y30330D01*
X16570Y30500D01*
X16200Y30830D01*
X15900Y31250D01*
X15450Y32580D01*
X14470Y35330D01*
G01X16880D02*
X15450Y32580D01*
G01X11600Y31830D02*
X8900Y37000D01*
G01X157330Y50170D02*
X156720Y49750D01*
X156050Y49500D01*
X155450D01*
X154850Y49750D01*
X154400Y50170D01*
X154170Y50750D01*
X154320Y51330D01*
X154700Y51830D01*
X155380Y52170D01*
X156270Y52330D01*
X156800Y52670D01*
X157030Y53250D01*
X156870Y53830D01*
X156500Y54250D01*
X155980Y54500D01*
X155450D01*
X154920Y54330D01*
X154470Y53920D01*
G01X151070Y51750D02*
X148670D01*
X148900Y52330D01*
X149270Y52670D01*
X149800Y52830D01*
X150320Y52750D01*
X150780Y52500D01*
X151070Y51920D01*
X151230Y51420D01*
Y50920D01*
X151070Y50420D01*
X150700Y49920D01*
X150250Y49580D01*
X149720Y49500D01*
X149200Y49670D01*
X148670Y50170D01*
G01X145270Y51750D02*
X142870D01*
X143100Y52330D01*
X143470Y52670D01*
X144000Y52830D01*
X144520Y52750D01*
X144980Y52500D01*
X145270Y51920D01*
X145430Y51420D01*
Y50920D01*
X145270Y50420D01*
X144900Y49920D01*
X144450Y49580D01*
X143920Y49500D01*
X143400Y49670D01*
X142870Y50170D01*
G01X134800Y49500D02*
Y52830D01*
G01Y51920D02*
X134580Y52330D01*
X134200Y52670D01*
X133670Y52830D01*
X133150Y52670D01*
X132780Y52330D01*
X132550Y51920D01*
Y49500D01*
G01Y51920D02*
X132320Y52330D01*
X131950Y52670D01*
X131430Y52830D01*
X130900Y52670D01*
X130520Y52330D01*
X130300Y51830D01*
Y49500D01*
G01X126750D02*
X127200Y49580D01*
X127650Y49920D01*
X127950Y50500D01*
X128100Y51170D01*
X127950Y51830D01*
X127650Y52420D01*
X127200Y52750D01*
X126750Y52830D01*
X126300Y52750D01*
X125850Y52420D01*
X125550Y51830D01*
X125470Y51170D01*
X125550Y50500D01*
X125850Y49920D01*
X126300Y49580D01*
X126750Y49500D01*
G01X122000D02*
Y52830D01*
G01Y52170D02*
X121630Y52500D01*
X121250Y52750D01*
X120720Y52830D01*
X120350Y52750D01*
X119900Y52500D01*
G01X116270Y51750D02*
X113870D01*
X114100Y52330D01*
X114470Y52670D01*
X115000Y52830D01*
X115520Y52750D01*
X115980Y52500D01*
X116270Y51920D01*
X116430Y51420D01*
Y50920D01*
X116270Y50420D01*
X115900Y49920D01*
X115450Y49580D01*
X114920Y49500D01*
X114400Y49670D01*
X113870Y50170D01*
G01X109350Y49330D02*
X109500Y49420D01*
Y49580D01*
X109350Y49670D01*
X109200Y49580D01*
Y49420D01*
X109350Y49330D01*
G01Y51580D02*
X109500Y51670D01*
Y51830D01*
X109350Y51920D01*
X109200Y51830D01*
Y51670D01*
X109350Y51580D01*
M02*
