G04 ================== begin FILE IDENTIFICATION RECORD ==================*
G04 Layout Name:  F:/WorkSpace/Annecy/Libra/Libra.brd*
G04 Film Name:    SOLDERMASK_TOP*
G04 File Format:  Gerber RS274X*
G04 File Origin:  Cadence Allegro 16.6-2015-S066*
G04 Origin Date:  Thu Nov 09 18:13:41 2017*
G04 *
G04 Layer:  PIN/SOLDERMASK_TOP*
G04 Layer:  PACKAGE GEOMETRY/SOLDERMASK_TOP*
G04 Layer:  BOARD GEOMETRY/OUTLINE*
G04 Layer:  BOARD GEOMETRY/SOLDERMASK_TOP*
G04 *
G04 Offset:    (0.0 0.0)*
G04 Mirror:    No*
G04 Mode:      Positive*
G04 Rotation:  0*
G04 FullContactRelief:  No*
G04 UndefLineWidth:     6.0*
G04 ================== end FILE IDENTIFICATION RECORD ====================*
%FSLAX55Y55*MOIN*%
%IR0*IPPOS*OFA0.00000B0.00000*MIA0B0*SFA1.00000B1.00000*%
%ADD14R,.0669X.1024*%
%ADD15R,.0291X.0213*%
%ADD10R,.0433X.0453*%
%ADD13R,.0453X.0433*%
%ADD11C,.0756*%
%ADD12R,.0276X.0394*%
%ADD16R,.0756X.0756*%
%ADD17C,.006*%
G75*
%LPD*%
G75*
G54D10*
X27050Y67000D03*
Y73000D03*
X32950Y67000D03*
Y73000D03*
X61950Y45000D03*
X56050D03*
X68050D03*
X90550Y49500D03*
X73950Y45000D03*
X111450Y49500D03*
X105550D03*
X96450D03*
G54D11*
X45000Y85000D03*
X55000D03*
X65000D03*
X75000D03*
X85000D03*
X95000D03*
X105000D03*
G54D12*
X66380Y30560D03*
X61460D03*
X56540D03*
X51620D03*
Y38440D03*
X56540D03*
X61460D03*
X66380D03*
G54D13*
X75000Y38450D03*
Y32550D03*
X80500Y62450D03*
Y56550D03*
X115000Y28550D03*
Y34450D03*
Y62450D03*
Y56550D03*
G54D14*
X100000Y34500D03*
G54D15*
X105510Y30560D03*
X94490D03*
X105510Y38440D03*
Y34500D03*
X94490D03*
Y38440D03*
G54D16*
X115000Y85000D03*
G54D17*
G01X0Y0D02*
Y90000D01*
X160000D01*
Y0D01*
X0D01*
G01X83650Y5000D02*
Y8100D01*
X84650Y5520D01*
X85650Y8100D01*
Y5000D01*
G01X86580Y6390D02*
X87800D01*
X87690Y6760D01*
X87500Y6960D01*
X87230Y7070D01*
X86960Y7010D01*
X86730Y6860D01*
X86580Y6500D01*
X86500Y6190D01*
Y5880D01*
X86580Y5570D01*
X86770Y5260D01*
X87000Y5050D01*
X87270Y5000D01*
X87530Y5100D01*
X87800Y5410D01*
G01X90340Y5000D02*
Y7070D01*
G01Y6710D02*
X90190Y6910D01*
X89960Y7010D01*
X89690Y7070D01*
X89420Y6960D01*
X89190Y6760D01*
X89040Y6450D01*
X88960Y6030D01*
X89040Y5620D01*
X89190Y5310D01*
X89420Y5100D01*
X89690Y5000D01*
X89960Y5050D01*
X90190Y5210D01*
X90340Y5410D01*
G01X91580Y5360D02*
X91770Y5150D01*
X92030Y5000D01*
X92270D01*
X92500Y5100D01*
X92650Y5260D01*
X92720Y5460D01*
X92690Y5780D01*
X92530Y5930D01*
X91840Y6240D01*
X91690Y6600D01*
X91770Y6860D01*
X91920Y7010D01*
X92150Y7070D01*
X92380Y7010D01*
X92610Y6860D01*
G01X94000Y7070D02*
Y5620D01*
X94150Y5260D01*
X94380Y5050D01*
X94650Y5000D01*
X94920Y5050D01*
X95150Y5260D01*
X95300Y5620D01*
G01Y5000D02*
Y7070D01*
G01X96610Y5000D02*
Y7070D01*
G01Y6650D02*
X96800Y6860D01*
X97000Y7010D01*
X97270Y7070D01*
X97460Y7010D01*
X97690Y6860D01*
G01X99080Y6390D02*
X100300D01*
X100190Y6760D01*
X100000Y6960D01*
X99730Y7070D01*
X99460Y7010D01*
X99230Y6860D01*
X99080Y6500D01*
X99000Y6190D01*
Y5880D01*
X99080Y5570D01*
X99270Y5260D01*
X99500Y5050D01*
X99770Y5000D01*
X100030Y5100D01*
X100300Y5410D01*
G01X101000Y5000D02*
Y7070D01*
G01Y6500D02*
X101110Y6760D01*
X101310Y6960D01*
X101580Y7070D01*
X101840Y6960D01*
X102030Y6760D01*
X102150Y6500D01*
Y5000D01*
G01Y6500D02*
X102270Y6760D01*
X102460Y6960D01*
X102720Y7070D01*
X102990Y6960D01*
X103190Y6760D01*
X103300Y6450D01*
Y5000D01*
G01X104080Y6390D02*
X105300D01*
X105190Y6760D01*
X105000Y6960D01*
X104730Y7070D01*
X104460Y7010D01*
X104230Y6860D01*
X104080Y6500D01*
X104000Y6190D01*
Y5880D01*
X104080Y5570D01*
X104270Y5260D01*
X104500Y5050D01*
X104770Y5000D01*
X105030Y5100D01*
X105300Y5410D01*
G01X106500Y5000D02*
Y7070D01*
G01Y6550D02*
X106650Y6810D01*
X106880Y7010D01*
X107190Y7070D01*
X107460Y7010D01*
X107690Y6810D01*
X107800Y6450D01*
Y5000D01*
G01X109650Y8100D02*
Y5000D01*
G01X109110Y7070D02*
X110190D01*
G01X113880Y8100D02*
Y5000D01*
X115420D01*
G01X117840D02*
Y7070D01*
G01Y6710D02*
X117690Y6910D01*
X117460Y7010D01*
X117190Y7070D01*
X116920Y6960D01*
X116690Y6760D01*
X116540Y6450D01*
X116460Y6030D01*
X116540Y5620D01*
X116690Y5310D01*
X116920Y5100D01*
X117190Y5000D01*
X117460Y5050D01*
X117690Y5210D01*
X117840Y5410D01*
G01X118960Y5000D02*
Y8100D01*
G01Y6550D02*
X119150Y6860D01*
X119380Y7010D01*
X119610Y7070D01*
X119960Y6960D01*
X120190Y6760D01*
X120340Y6390D01*
Y5980D01*
X120260Y5570D01*
X120110Y5260D01*
X119840Y5050D01*
X119610Y5000D01*
X119380Y5050D01*
X119150Y5210D01*
X118960Y5460D01*
G01X122150Y5000D02*
X121920Y5050D01*
X121690Y5260D01*
X121540Y5620D01*
X121460Y6030D01*
X121540Y6450D01*
X121690Y6810D01*
X121920Y7010D01*
X122150Y7070D01*
X122380Y7010D01*
X122610Y6810D01*
X122760Y6450D01*
X122800Y6030D01*
X122760Y5620D01*
X122610Y5260D01*
X122380Y5050D01*
X122150Y5000D01*
G01X124110D02*
Y7070D01*
G01Y6650D02*
X124300Y6860D01*
X124500Y7010D01*
X124770Y7070D01*
X124960Y7010D01*
X125190Y6860D01*
G01X127840Y5000D02*
Y7070D01*
G01Y6710D02*
X127690Y6910D01*
X127460Y7010D01*
X127190Y7070D01*
X126920Y6960D01*
X126690Y6760D01*
X126540Y6450D01*
X126460Y6030D01*
X126540Y5620D01*
X126690Y5310D01*
X126920Y5100D01*
X127190Y5000D01*
X127460Y5050D01*
X127690Y5210D01*
X127840Y5410D01*
G01X129650Y8100D02*
Y5000D01*
G01X129110Y7070D02*
X130190D01*
G01X132150Y5000D02*
X131920Y5050D01*
X131690Y5260D01*
X131540Y5620D01*
X131460Y6030D01*
X131540Y6450D01*
X131690Y6810D01*
X131920Y7010D01*
X132150Y7070D01*
X132380Y7010D01*
X132610Y6810D01*
X132760Y6450D01*
X132800Y6030D01*
X132760Y5620D01*
X132610Y5260D01*
X132380Y5050D01*
X132150Y5000D01*
G01X134110D02*
Y7070D01*
G01Y6650D02*
X134300Y6860D01*
X134500Y7010D01*
X134770Y7070D01*
X134960Y7010D01*
X135190Y6860D01*
G01X136340Y4070D02*
X136580Y3970D01*
X136880Y4070D01*
X137070Y4280D01*
X137230Y4540D01*
X137460Y5360D01*
X137960Y7070D01*
G01X136730D02*
X137460Y5360D01*
G01X81190Y15100D02*
X82110D01*
G01X81650D02*
Y12000D01*
G01X81190D02*
X82110D01*
G01X83500D02*
Y14070D01*
G01Y13550D02*
X83650Y13810D01*
X83880Y14010D01*
X84190Y14070D01*
X84460Y14010D01*
X84690Y13810D01*
X84800Y13450D01*
Y12000D01*
G01X86080Y12360D02*
X86270Y12150D01*
X86530Y12000D01*
X86770D01*
X87000Y12100D01*
X87150Y12260D01*
X87220Y12460D01*
X87190Y12780D01*
X87030Y12930D01*
X86340Y13240D01*
X86190Y13600D01*
X86270Y13860D01*
X86420Y14010D01*
X86650Y14070D01*
X86880Y14010D01*
X87110Y13860D01*
G01X89150Y15100D02*
Y12000D01*
G01X88610Y14070D02*
X89690D01*
G01X91110Y12000D02*
Y14070D01*
G01Y13650D02*
X91300Y13860D01*
X91500Y14010D01*
X91770Y14070D01*
X91960Y14010D01*
X92190Y13860D01*
G01X93500Y14070D02*
Y12620D01*
X93650Y12260D01*
X93880Y12050D01*
X94150Y12000D01*
X94420Y12050D01*
X94650Y12260D01*
X94800Y12620D01*
G01Y12000D02*
Y14070D01*
G01X95500Y12000D02*
Y14070D01*
G01Y13500D02*
X95610Y13760D01*
X95810Y13960D01*
X96080Y14070D01*
X96340Y13960D01*
X96530Y13760D01*
X96650Y13500D01*
Y12000D01*
G01Y13500D02*
X96770Y13760D01*
X96960Y13960D01*
X97220Y14070D01*
X97490Y13960D01*
X97690Y13760D01*
X97800Y13450D01*
Y12000D01*
G01X98580Y13390D02*
X99800D01*
X99690Y13760D01*
X99500Y13960D01*
X99230Y14070D01*
X98960Y14010D01*
X98730Y13860D01*
X98580Y13500D01*
X98500Y13190D01*
Y12880D01*
X98580Y12570D01*
X98770Y12260D01*
X99000Y12050D01*
X99270Y12000D01*
X99530Y12100D01*
X99800Y12410D01*
G01X101000Y12000D02*
Y14070D01*
G01Y13550D02*
X101150Y13810D01*
X101380Y14010D01*
X101690Y14070D01*
X101960Y14010D01*
X102190Y13810D01*
X102300Y13450D01*
Y12000D01*
G01X104150Y15100D02*
Y12000D01*
G01X103610Y14070D02*
X104690D01*
G01X109840Y12000D02*
Y14070D01*
G01Y13710D02*
X109690Y13910D01*
X109460Y14010D01*
X109190Y14070D01*
X108920Y13960D01*
X108690Y13760D01*
X108540Y13450D01*
X108460Y13030D01*
X108540Y12620D01*
X108690Y12310D01*
X108920Y12100D01*
X109190Y12000D01*
X109460Y12050D01*
X109690Y12210D01*
X109840Y12410D01*
G01X111000Y12000D02*
Y14070D01*
G01Y13550D02*
X111150Y13810D01*
X111380Y14010D01*
X111690Y14070D01*
X111960Y14010D01*
X112190Y13810D01*
X112300Y13450D01*
Y12000D01*
G01X114840Y15100D02*
Y12000D01*
G01Y12460D02*
X114690Y12210D01*
X114460Y12050D01*
X114190Y12000D01*
X113880Y12100D01*
X113650Y12360D01*
X113500Y12670D01*
X113460Y13030D01*
X113500Y13390D01*
X113650Y13710D01*
X113880Y13960D01*
X114190Y14070D01*
X114460Y14010D01*
X114650Y13910D01*
X114840Y13710D01*
M02*
