G04 ================== begin FILE IDENTIFICATION RECORD ==================*
G04 Layout Name:  F:/WorkSpace/Annecy/Libra/Libra.brd*
G04 Film Name:    SOLDERMASK_TOP*
G04 File Format:  Gerber RS274X*
G04 File Origin:  Cadence Allegro 16.6-2015-S066*
G04 Origin Date:  Thu Nov 09 18:13:12 2017*
G04 *
G04 Layer:  PIN/SOLDERMASK_TOP*
G04 Layer:  PACKAGE GEOMETRY/SOLDERMASK_TOP*
G04 Layer:  BOARD GEOMETRY/OUTLINE*
G04 Layer:  BOARD GEOMETRY/SOLDERMASK_TOP*
G04 *
G04 Offset:    (0.0 0.0)*
G04 Mirror:    No*
G04 Mode:      Positive*
G04 Rotation:  0*
G04 FullContactRelief:  No*
G04 UndefLineWidth:     0.0*
G04 ================== end FILE IDENTIFICATION RECORD ====================*
%FSLAX55Y55*MOIN*%
%IR0*IPPOS*OFA0.00000B0.00000*MIA0B0*SFA1.00000B1.00000*%
%ADD14R,.0669X.1024*%
%ADD15R,.0291X.0213*%
%ADD10R,.0433X.0453*%
%ADD13R,.0453X.0433*%
%ADD11C,.0756*%
%ADD12R,.0276X.0394*%
%ADD16R,.0756X.0756*%
%LPD*%
G75*
G54D10*
X27050Y67000D03*
Y73000D03*
X32950Y67000D03*
Y73000D03*
X61950Y45000D03*
X56050D03*
X68050D03*
X90550Y49500D03*
X73950Y45000D03*
X111450Y49500D03*
X105550D03*
X96450D03*
G54D11*
X45000Y85000D03*
X55000D03*
X65000D03*
X75000D03*
X85000D03*
X95000D03*
X105000D03*
G54D12*
X66380Y30560D03*
X61460D03*
X56540D03*
X51620D03*
Y38440D03*
X56540D03*
X61460D03*
X66380D03*
G54D13*
X75000Y38450D03*
Y32550D03*
X80500Y62450D03*
Y56550D03*
X115000Y28550D03*
Y34450D03*
Y62450D03*
Y56550D03*
G54D14*
X100000Y34500D03*
G54D15*
X105510Y30560D03*
X94490D03*
X105510Y38440D03*
Y34500D03*
X94490D03*
Y38440D03*
G54D16*
X115000Y85000D03*
M02*
