G04 ================== begin FILE IDENTIFICATION RECORD ==================*
G04 Layout Name:  F:/WorkSpace/Annecy/Libra/Libra.brd*
G04 Film Name:    TOP*
G04 File Format:  Gerber RS274X*
G04 File Origin:  Cadence Allegro 16.6-2015-S066*
G04 Origin Date:  Thu Nov 09 18:13:41 2017*
G04 *
G04 Layer:  ETCH/TOP*
G04 Layer:  PIN/TOP*
G04 Layer:  VIA CLASS/TOP*
G04 *
G04 Offset:    (0.0 0.0)*
G04 Mirror:    No*
G04 Mode:      Positive*
G04 Rotation:  0*
G04 FullContactRelief:  No*
G04 UndefLineWidth:     6.0*
G04 ================== end FILE IDENTIFICATION RECORD ====================*
%FSLAX55Y55*MOIN*%
%IR0*IPPOS*OFA0.00000B0.00000*MIA0B0*SFA1.00000B1.00000*%
%ADD10C,.1181*%
%ADD18C,.02*%
%ADD12C,.022*%
%ADD13C,.0717*%
%ADD17R,.0236X.0157*%
%ADD11R,.0354X.0374*%
%ADD15R,.0374X.0354*%
%ADD14R,.0197X.0315*%
%ADD19R,.0717X.0717*%
%ADD16R,.0591X.0945*%
%ADD20C,.01*%
%ADD22R,.03X.0418*%
%ADD21C,.082*%
%ADD24R,.0456X.0476*%
%ADD23R,.0476X.0456*%
G75*
%LPD*%
G75*
G36*
G01X20000Y10D02*
Y20000D01*
X10D01*
Y70000D01*
X20000D01*
Y89990D01*
X140000D01*
Y70000D01*
X159990D01*
Y20000D01*
X140000D01*
Y10D01*
X20000D01*
G37*
%LPC*%
G75*
G36*
G01X52370Y74510D02*
X61240Y83370D01*
X61190Y83490D01*
G02X63490Y81190I3810J1510D01*
G01X63370Y81240D01*
X59580Y77440D01*
G03X59860Y76760I283J-281D01*
G01X69620D01*
X73490Y80630D01*
Y81190D01*
G02X76510I1510J3810D01*
G01Y79370D01*
X70880Y73740D01*
X58880D01*
X54630Y69490D01*
X49630D01*
X46480Y66350D01*
X46470Y66310D01*
G02X44450Y65480I-1465J692D01*
G01X44410Y65490D01*
X35230D01*
Y64620D01*
X30670D01*
Y69380D01*
X35230D01*
Y68510D01*
X44370D01*
X46670Y70810D01*
G03X46390Y71490I-283J281D01*
G01X41590D01*
X41550Y71480D01*
G02X40450I-550J1520D01*
G01X40410Y71490D01*
X35230D01*
Y70620D01*
X30670D01*
Y75380D01*
X35230D01*
Y74510D01*
X40410D01*
X40450Y74520D01*
G02X41550I550J-1520D01*
G01X41590Y74510D01*
X52370D01*
G37*
G36*
G01X117380Y64730D02*
Y60170D01*
X112620D01*
Y60940D01*
X109140D01*
X109100Y60930D01*
G02Y63970I-550J1520D01*
G01X109140Y63960D01*
X112620D01*
Y64730D01*
X112990D01*
Y80900D01*
X110900D01*
Y89100D01*
X119100D01*
Y80900D01*
X117010D01*
Y64730D01*
X117380D01*
G37*
G36*
G01X82880D02*
Y60170D01*
X78120D01*
Y60940D01*
X73640D01*
X73600Y60930D01*
G02Y63970I-550J1520D01*
G01X73640Y63960D01*
X78120D01*
Y64730D01*
X82880D01*
G37*
G36*
G01X52950Y17850D02*
G03X53090Y17510I141J-141D01*
G01X53630D01*
X64870Y28750D01*
Y30560D01*
G02X64880Y30760I1511J25D01*
G01Y32650D01*
X67880D01*
Y30760D01*
G02X67890Y30560I-1501J-175D01*
G01Y27490D01*
X54890Y14490D01*
X45590D01*
X45550Y14480D01*
G02X43640Y16870I-546J1522D01*
G03X43300Y17490I-337J218D01*
G01X41590D01*
X41550Y17480D01*
G02X39640Y19870I-546J1522D01*
G03X39300Y20490I-337J218D01*
G01X38090D01*
X38050Y20480D01*
G02X36140Y22870I-546J1522D01*
G03X35800Y23490I-337J218D01*
G01X33590D01*
X33550Y23480D01*
G02Y26520I-550J1520D01*
G01X33590Y26510D01*
X47370D01*
X50110Y29250D01*
Y30560D01*
G02X50120Y30760I1511J25D01*
G01Y32650D01*
X53120D01*
Y30760D01*
G02X53130Y30560I-1501J-175D01*
G01Y27990D01*
X48990Y23850D01*
G03X49130Y23510I141J-141D01*
G01X49370D01*
X55030Y29170D01*
Y30560D01*
G02X55040Y30760I1511J25D01*
G01Y32650D01*
X58040D01*
Y30760D01*
G02X58050Y30560I-1501J-175D01*
G01Y27910D01*
X50990Y20850D01*
G03X51130Y20510I141J-141D01*
G01X51330D01*
X59950Y29130D01*
Y30560D01*
G02X59960Y30760I1511J25D01*
G01Y32650D01*
X62960D01*
Y30760D01*
G02X62970Y30560I-1501J-175D01*
G01Y27870D01*
X52950Y17850D01*
G37*
G36*
G01X107200Y29260D02*
X92800D01*
Y31860D01*
X96530D01*
Y33200D01*
X92800D01*
Y35800D01*
X96530D01*
Y37140D01*
X95270D01*
G02X93710I-780J1300D01*
G01X92800D01*
Y39740D01*
X92980D01*
Y44930D01*
X90790Y47120D01*
X88270D01*
Y49740D01*
X83490Y54520D01*
Y81190D01*
G02X86510I1510J3810D01*
G01Y55780D01*
X90410Y51880D01*
X92830D01*
Y49360D01*
X93490Y48700D01*
G03X94170Y48980I281J283D01*
G01Y51880D01*
X94940D01*
Y53000D01*
X95040Y53100D01*
Y55960D01*
X95030Y56000D01*
G02X98070I1520J550D01*
G01X98060Y55960D01*
Y51880D01*
X98730D01*
Y47120D01*
X96030D01*
G03X95750Y46440I3J-399D01*
G01X96000Y46190D01*
Y39740D01*
X104000D01*
Y44130D01*
X104040Y44170D01*
Y47120D01*
X103270D01*
Y51880D01*
X104040D01*
Y53320D01*
X93490Y63870D01*
Y81190D01*
G02X96510I1510J3810D01*
G01Y65130D01*
X107060Y54580D01*
Y51880D01*
X107830D01*
Y47120D01*
X107060D01*
Y42910D01*
X107020Y42870D01*
Y39740D01*
X107200D01*
Y37140D01*
X106290D01*
G02X104730I-780J1300D01*
G01X103470D01*
Y35800D01*
X104730D01*
G02X105510Y36010I769J-1303D01*
G01X112620D01*
Y36730D01*
X113490D01*
Y45220D01*
X111590Y47120D01*
X109170D01*
Y51880D01*
X111590D01*
X113490Y53780D01*
Y54270D01*
X112620D01*
Y55040D01*
X109140D01*
X109100Y55030D01*
G02Y58070I-550J1520D01*
G01X109140Y58060D01*
X112620D01*
Y58830D01*
X117380D01*
Y54270D01*
X116510D01*
Y52520D01*
X113730Y49740D01*
Y49260D01*
X116510Y46480D01*
Y36730D01*
X117380D01*
Y32170D01*
X112620D01*
Y32940D01*
X111500D01*
X111450Y32990D01*
X105510D01*
G02X104730Y33200I-11J1513D01*
G01X103470D01*
Y31860D01*
X107200D01*
Y29260D01*
G37*
G36*
G01X77380Y36170D02*
X72620D01*
Y36930D01*
X67880D01*
Y36350D01*
X64880D01*
Y38240D01*
G02X64870Y38440I1501J175D01*
G01Y43960D01*
X65770Y44860D01*
Y47490D01*
X64230D01*
Y42620D01*
X63460D01*
Y41500D01*
X62970Y41010D01*
Y38440D01*
G02X62960Y38240I-1511J-25D01*
G01Y36350D01*
X59960D01*
Y38240D01*
G02X59950Y38440I1501J175D01*
G01Y42270D01*
X59960Y42280D01*
G03X59820Y42620I-141J141D01*
G01X59670D01*
Y47490D01*
X58330D01*
Y42620D01*
X53770D01*
Y47490D01*
X44110D01*
G03X43830Y46810I3J-399D01*
G01X50110Y40530D01*
X53120D01*
Y38640D01*
G02Y38240I-1500J-200D01*
G01Y36350D01*
X50120D01*
Y36930D01*
X49430D01*
X25490Y60870D01*
Y64620D01*
X24770D01*
Y69380D01*
X25540D01*
Y70620D01*
X24770D01*
Y75380D01*
X29330D01*
Y70620D01*
X28560D01*
Y69380D01*
X29330D01*
Y64620D01*
X28560D01*
Y63500D01*
X28510Y63450D01*
Y62130D01*
X40130Y50510D01*
X69870D01*
X77420Y58060D01*
X78120D01*
Y58830D01*
X82880D01*
Y54270D01*
X82010D01*
Y40370D01*
X78630Y36990D01*
X78550D01*
X78500Y36940D01*
X77380D01*
Y36170D01*
G37*
G54D22*
X56540Y38440D03*
G54D21*
X45000Y85000D03*
X55000D03*
X105000D03*
G54D23*
X75000Y32550D03*
X115000Y28550D03*
%LPD*%
G75*
G36*
G01X67890Y39950D02*
Y42620D01*
X70330D01*
Y47490D01*
X71130D01*
X77910Y54270D01*
X78990D01*
Y41630D01*
X77720Y40360D01*
G02X77380Y40500I-141J141D01*
G01Y40730D01*
X72620D01*
Y39950D01*
X67890D01*
G37*
%LPC*%
G75*
G54D24*
X73950Y45000D03*
%LPD*%
G75*
G54D10*
X10000Y10000D03*
Y80000D03*
X150000Y10000D03*
Y80000D03*
G54D20*
G01X27050Y73000D02*
Y67000D01*
G01X39500Y49000D02*
X27000Y61500D01*
Y64080D01*
X27050Y64130D01*
Y67000D01*
G01X45000Y16000D02*
X54260D01*
X66380Y28120D01*
Y30560D01*
G01X41000Y19000D02*
X51960D01*
X61460Y28500D01*
Y30560D01*
G01X56540D02*
Y28540D01*
X50000Y22000D01*
X37500D01*
G01X33000Y25000D02*
X48000D01*
X51620Y28620D01*
Y30560D01*
G01X56050Y45000D02*
X49500D01*
G01X80500Y56550D02*
X78050D01*
X70500Y49000D01*
X39500D01*
G01D02*
X50060Y38440D01*
X51620D01*
G01X45000Y67000D02*
X49000Y71000D01*
X54000D01*
X58250Y75250D01*
X70250D01*
X75000Y80000D01*
Y85000D01*
G01X45000Y67000D02*
X32950D01*
G01Y73000D02*
X41000D01*
G01D02*
X53000D01*
X65000Y85000D01*
G01X56540Y38440D02*
Y41640D01*
G01X56050Y45000D02*
Y45450D01*
G01Y42130D02*
Y45000D01*
G01X56540Y41640D02*
X56050Y42130D01*
G01X56540Y36150D02*
Y38440D01*
G01X54840D02*
X56540D01*
G01D02*
X58240D01*
G01X61460D02*
Y41640D01*
X61950Y42130D01*
Y45000D01*
G01X66380Y38440D02*
Y43330D01*
X68050Y45000D01*
G01X66380Y38440D02*
X74990D01*
X75000Y38450D01*
G01Y32550D02*
Y29000D01*
G01X85000Y34500D02*
Y26500D01*
X86850Y24650D01*
X111000D01*
G01X73950Y45000D02*
X76000D01*
X77000Y46000D01*
G01D02*
Y50000D01*
G01X73950Y42420D02*
Y45000D01*
G01D02*
Y47580D01*
G01X71470Y45000D02*
X73950D01*
G01X94490Y34500D02*
X85000D01*
G01D02*
Y50000D01*
G01X75000Y32550D02*
Y35030D01*
G01X72420Y32550D02*
X75000D01*
G01D02*
X77580D01*
G01X85000Y85000D02*
Y55150D01*
X90550Y49600D01*
Y49500D01*
G01X94490Y38440D02*
Y45560D01*
X90550Y49500D01*
G01X75000Y38450D02*
X77870D01*
X77920Y38500D01*
X78000D01*
X80500Y41000D01*
Y56550D01*
G01Y62450D02*
X73050D01*
G01X100000Y29060D02*
Y34500D01*
G01X94490D02*
X100000D01*
G01X94490Y33000D02*
Y34500D01*
G01D02*
Y36000D01*
G01X100000Y34500D02*
Y39940D01*
G01X95000Y85000D02*
Y64500D01*
X105550Y53950D01*
Y49500D01*
G01X105510Y38440D02*
Y43500D01*
X105550Y43540D01*
Y49500D01*
G01X96550Y56550D02*
Y52470D01*
X96450Y52370D01*
Y49500D01*
G01X105510Y34500D02*
X112080D01*
X112130Y34450D01*
X115000D01*
G01X108550Y56550D02*
X115000D01*
G01Y62450D02*
X108550D01*
G01X105000Y80700D02*
Y85000D01*
G01D02*
Y89300D01*
G01X100700Y85000D02*
X105000D01*
G01D02*
X109300D01*
G01X111000Y24650D02*
X114900Y28550D01*
X115000D01*
G01Y26070D02*
Y28550D01*
G01D02*
Y31030D01*
G01Y28550D02*
X117580D01*
G01X111450Y49500D02*
Y49400D01*
X115000Y45850D01*
Y34450D01*
G01Y56550D02*
Y53150D01*
X111450Y49600D01*
Y49500D01*
G54D11*
X27050Y67000D03*
Y73000D03*
X32950Y67000D03*
Y73000D03*
X61950Y45000D03*
X56050D03*
X68050D03*
X90550Y49500D03*
X73950Y45000D03*
X111450Y49500D03*
X105550D03*
X96450D03*
G54D12*
X45000Y16000D03*
X41000Y19000D03*
X37500Y22000D03*
X33000Y25000D03*
X49500Y45000D03*
X45000Y67000D03*
X41000Y73000D03*
X75000Y29000D03*
X77000Y50000D03*
X85000D03*
X73050Y62450D03*
X96550Y56550D03*
X108550D03*
Y62450D03*
G54D13*
X45000Y85000D03*
X55000D03*
X65000D03*
X75000D03*
X85000D03*
X95000D03*
X105000D03*
G54D14*
X66380Y30560D03*
X61460D03*
X56540D03*
X51620D03*
Y38440D03*
X56540D03*
X61460D03*
X66380D03*
G54D15*
X75000Y38450D03*
Y32550D03*
X80500Y62450D03*
Y56550D03*
X115000Y28550D03*
Y34450D03*
Y62450D03*
Y56550D03*
G54D16*
X100000Y34500D03*
G54D17*
X105510Y30560D03*
X94490D03*
X105510Y38440D03*
Y34500D03*
X94490D03*
Y38440D03*
G54D18*
G01X115000Y62450D02*
Y85000D01*
X100000Y34500D03*
G54D19*
X115000Y85000D03*
M02*
